STARTFONT 2.3
FONT -FontForge-Satisfy-Book-R-Normal--32-320-72-72-P-139-ISO10646-1
SIZE 32 72 72  4
FONTBOUNDINGBOX 37 46 -7 -16
COMMENT "Generated by fontforge, http://fontforge.sourceforge.net"
COMMENT "Copyright (c) 2011 by Font Diner, Inc. All rights reserved."
STARTPROPERTIES 40
FOUNDRY "FontForge"
FAMILY_NAME "Satisfy"
WEIGHT_NAME "Book"
SLANT "R"
SETWIDTH_NAME "Normal"
ADD_STYLE_NAME ""
PIXEL_SIZE 32
POINT_SIZE 320
RESOLUTION_X 72
RESOLUTION_Y 72
SPACING "P"
AVERAGE_WIDTH 139
CHARSET_REGISTRY "ISO10646"
CHARSET_ENCODING "1"
FONTNAME_REGISTRY ""
CHARSET_COLLECTIONS "ISO10646-1"
BITS_PER_PIXEL 4
FONT_NAME "Satisfy-Regular"
FACE_NAME "Satisfy Regular"
COPYRIGHT "Copyright (c) 2011 by Font Diner, Inc. All rights reserved."
FONT_VERSION "1.001"
FONT_ASCENT 26
FONT_DESCENT 6
UNDERLINE_POSITION -3
UNDERLINE_THICKNESS 2
X_HEIGHT 12
CAP_HEIGHT 23
RAW_ASCENT 799
RAW_DESCENT 200
NORM_SPACE 9
RELATIVE_WEIGHT 40
RELATIVE_SETWIDTH 50
SUPERSCRIPT_X 0
SUPERSCRIPT_Y 15
SUPERSCRIPT_SIZE 20
SUBSCRIPT_X 0
SUBSCRIPT_Y 4
SUBSCRIPT_SIZE 20
AVG_LOWERCASE_WIDTH 132
AVG_UPPERCASE_WIDTH 181
ENDPROPERTIES
CHARS 227
STARTCHAR space
ENCODING 32
SWIDTH 280 0
DWIDTH 9 0
BBX 1 1 0 0
BITMAP
00
ENDCHAR
STARTCHAR exclam
ENCODING 33
SWIDTH 249 0
DWIDTH 8 0
BBX 10 25 -1 -1
BITMAP
0000001683
000000DFF6
000001FFF2
000004FFD0
000008FF90
00000BFF50
00000EFF10
00003FFC00
00007FF800
0000AFF400
0000DFE000
0002FFA000
0005FF6000
0008FF2000
000CFD0000
001FF90000
004FF50000
007FF10000
00AFB00000
00A7100000
0000000000
0046100000
2DFF900000
8FFF400000
3A93000000
ENDCHAR
STARTCHAR quotedbl
ENCODING 34
SWIDTH 249 0
DWIDTH 8 0
BBX 10 10 1 14
BITMAP
0005700372
00AFC04FF2
01FF70AFD0
04FF30DF80
08FE02FF40
0CF906FE00
1FF509FB00
4FF10DF700
7FC02FF300
9E704EC000
ENDCHAR
STARTCHAR numbersign
ENCODING 35
SWIDTH 417 0
DWIDTH 13 0
BBX 16 18 -1 3
BITMAP
0000000010000100
0000000BF202DD00
0000006FB009F700
000000AF600EF200
000000EF104FC000
00289BFECCDFDA92
01EFFFFFFFFFFFE2
03B97FF445FC3410
00004FB007F70000
00009F600DF20000
0367EFA99FE87500
3FFFFFFFFFFFFC00
8DBDFA77EF866200
000EF303FE000000
004FE008FA000000
009FA00DF6000000
00EF603FF2000000
0052001410000000
ENDCHAR
STARTCHAR dollar
ENCODING 36
SWIDTH 292 0
DWIDTH 9 0
BBX 13 25 -2 -1
BITMAP
00000000030000
000000003F6000
000000007F2000
00000039EFA100
000008FE8AFB00
00006FD200CF30
0001EF40009F70
0003FF0000BF70
0004FF0001FF30
0001FF4009E600
0000CFA0000000
00007FF2000000
00001EF8000000
000008FE100000
000001EF700000
0000008FE00000
02C3001FF30000
0DF0000DF50000
1FF0000EF40000
0DF4005FD00000
04FE68EE300000
003BFE92000000
0007F500000000
000CE100000000
00032000000000
ENDCHAR
STARTCHAR percent
ENCODING 37
SWIDTH 574 0
DWIDTH 18 0
BBX 19 25 0 -1
BITMAP
00000120000000002650
0001AFFD20000006FE20
001CFC8FD000003FF500
009FB00AF50000DF9000
01FF2007F80008FC0000
06FB0008F7004FE20000
0AF6000BF501DF600000
0BF4001FF109FA000000
0AF4008FB05FD1000000
07F804FF31EF40000000
03FFEFF60AF800000000
005CEB406FD000000000
00000002EF3000000000
0000000BF70069710000
0000007FC01CFFFD2000
000002EF30BFB16FA000
00000CF805FD101FE000
00007FD10BF6000FF000
0003FF401FF1002FE000
000CFA003FD0006FB000
008FE1003FC000BF6000
03FF60002FD004FE1000
1DFC00000DF87EF60000
9FF4000005FFFF700000
76200000003762000000
ENDCHAR
STARTCHAR ampersand
ENCODING 38
SWIDTH 460 0
DWIDTH 15 0
BBX 16 26 -2 -2
BITMAP
000000000017BA30
0000000004EEBFD0
000000003ED20AF2
00000000CF300DE0
00000004FD007F90
00000008FC05FE20
0000000BFA5FF500
0000000DFDFF7000
0000000EFFF90000
0000000EFF900000
0000007FFC000000
000007FFFB000000
00006FFFFC000000
0005FFDDFE000000
003FFE2CFF100000
01DFF40AFF400000
09FF8009FF600000
1FFE1006FF900000
6FF70004FFD0007A
8FF30001FFF109D2
8FF30000CFF7CD20
6FF900008FFFB100
1EFFB778CFFF2000
05FFFFFFFFFFC100
0038AA8519FFF600
0000000001772000
ENDCHAR
STARTCHAR quotesingle
ENCODING 39
SWIDTH 113 0
DWIDTH 4 0
BBX 5 10 1 14
BITMAP
000570
00AFC0
01FF70
04FF30
08FE00
0CF900
1FF500
4FF100
7FC000
9E7000
ENDCHAR
STARTCHAR parenleft
ENCODING 40
SWIDTH 234 0
DWIDTH 8 0
BBX 11 31 0 -4
BITMAP
000000000220
000000006F10
00000007FC00
0000005FE200
000002EF4000
00000AF90000
00003FF20000
0000AF900000
0002FF200000
0008FC000000
000EF7000000
004FF2000000
009FC0000000
00DF70000000
02FF40000000
06FF10000000
0AFD00000000
0DFA00000000
0FF800000000
2FF500000000
4FF300000000
4FF200000000
5FF000000000
5FF000000000
4FE000000000
3FF000000000
0FF100000000
0CF400000000
06F800000000
01D600000000
003200000000
ENDCHAR
STARTCHAR parenright
ENCODING 41
SWIDTH 204 0
DWIDTH 7 0
BBX 11 31 -4 -4
BITMAP
000000020000
000000079000
0000000AF200
00000007F800
00000004FC00
00000003FE00
00000002FF10
00000002FF20
00000003FF20
00000004FF20
00000005FF10
00000007FF00
00000009FD00
0000000CFA00
0000000EF800
0000002FF400
0000006FF100
0000009FB000
000000DF7000
000003FF2000
000008FC0000
00000DF70000
00004FF10000
0000AF900000
0003FF200000
000AF9000000
005FE1000000
02EF50000000
0DF800000000
3F8000000000
430000000000
ENDCHAR
STARTCHAR asterisk
ENCODING 42
SWIDTH 327 0
DWIDTH 10 0
BBX 12 12 1 12
BITMAP
000001100000
00000AFE5000
01400AFF1000
0AF50BF80000
3FFF6AE149E1
17BFFEEDFFF3
0001BFE88881
004DFBF80000
08FFD1EF9000
08FF60AFF700
009B005FC300
000000050000
ENDCHAR
STARTCHAR plus
ENCODING 43
SWIDTH 350 0
DWIDTH 11 0
BBX 12 11 -1 6
BITMAP
0000004DC000
000000BFA000
000000EF6000
000003FF2000
039ACDFFCCB9
0DFFFFFFFFFE
2EB87FF95453
00002FF30000
00006FF00000
00009FC00000
00009C500000
ENDCHAR
STARTCHAR comma
ENCODING 44
SWIDTH 200 0
DWIDTH 6 0
BBX 4 7 -1 -4
BITMAP
0351
7FFA
EFFC
8EF9
08F3
2E70
9600
ENDCHAR
STARTCHAR hyphen
ENCODING 45
SWIDTH 353 0
DWIDTH 11 0
BBX 12 4 -1 8
BITMAP
000122222210
0AFFFFFFFFFB
4FFFFFFFEEE7
474310000000
ENDCHAR
STARTCHAR period
ENCODING 46
SWIDTH 213 0
DWIDTH 7 0
BBX 5 4 -1 -1
BITMAP
015500
5EFF40
EFFD10
6B8100
ENDCHAR
STARTCHAR slash
ENCODING 47
SWIDTH 262 0
DWIDTH 8 0
BBX 17 25 -4 -1
BITMAP
000000000000003730
00000000000008FD10
0000000000003FF500
000000000000BFA000
000000000005FE2000
00000000000DF70000
00000000006FD00000
0000000001EF500000
0000000008FB000000
000000002FF2000000
00000000AF80000000
00000003FE10000000
0000000BF700000000
0000005FD000000000
000000DF5000000000
000007FD0000000000
00001EF50000000000
00008FD00000000000
0002FF500000000000
000AFC000000000000
003FF5000000000000
00BFD0000000000000
05FF60000000000000
0DFE00000000000000
175100000000000000
ENDCHAR
STARTCHAR zero
ENCODING 48
SWIDTH 489 0
DWIDTH 16 0
BBX 14 25 1 -1
BITMAP
00000002783000
0000008FFFF600
00000AFF89FF20
00009FF400AF90
0004FF80005FD0
000DFD00002FF1
007FF500001FF3
00DFD000001FF5
05FF7000001FF5
0BFF2000002FF5
1FFD0000004FF4
5FF80000006FF2
9FF50000009FF0
CFF3000000DFC0
EFF0000001FF90
FFE0000006FF50
FFD000000BFF10
FFC000002FFA00
DFC000008FF300
BFE00001EFB000
8FF1000AFF2000
3FF6005FF70000
0CFD47FF800000
03EFFFE6000000
0029A710000000
ENDCHAR
STARTCHAR one
ENCODING 49
SWIDTH 272 0
DWIDTH 9 0
BBX 9 25 0 -1
BITMAP
0000003100
000008FD10
0000AFFF20
0008FFFD00
0003EFF900
00005FF500
00008FF200
0000BFD000
0000DF9000
0001FF6000
0004FF2000
0008FD0000
000BFA0000
000EF60000
003FF20000
007FD00000
00BFA00000
00EF600000
04FF200000
09FE000000
0DFC000000
2FFA000000
6FFA000000
6FFC000000
1663000000
ENDCHAR
STARTCHAR two
ENCODING 50
SWIDTH 448 0
DWIDTH 14 0
BBX 15 25 -1 -1
BITMAP
0000000015786100
00000019FCDFFD10
000003EF6008FF80
00002EF90002FFB0
0000CFE10001FFC0
0003FF900002FFC0
0006FF800004FF90
0002DF900009FF50
00000000000DFE00
00000000005FF700
0000000000DFD000
0000000008FF3000
000000004FF60000
00000002EF900000
0000002EFB000000
000003EFC1000000
00005EFB10000000
0006FFB100000000
007FFA0000000000
05FF800000000000
2EF9000000000000
BFE58CEFFEC70000
AFFFFFFFFFFF0000
5FFFDBBBCFFD0000
0871000000460000
ENDCHAR
STARTCHAR three
ENCODING 51
SWIDTH 462 0
DWIDTH 15 0
BBX 16 25 -1 -1
BITMAP
0000000157873000
0000018FFFFFFA00
00001CFFB437FF90
0000BFF800009FE1
0003FFC000008FF2
0007FF7000009FF2
0007FF800000DFD0
0002EFE20004FF80
00001410001DFE10
0000000000AFF500
000000000AFF7000
00000003CFF60000
0000029FFE500000
000005FFEFFC2000
0000007201CFC000
00000000005FF300
00000000004FF400
00000000006FF300
0000000000AFE000
06CE100001FF9000
2FFF100008FF3000
0FFF50004FF80000
09FFE758FFB00000
01CFFFFFF9000000
0005ACB930000000
ENDCHAR
STARTCHAR four
ENCODING 52
SWIDTH 452 0
DWIDTH 14 0
BBX 14 25 0 -1
BITMAP
00000000000142
0000000005BFF9
000000003FFFF6
00000001DFCEF2
0000000BFD4FD0
0000008FE36FA0
000006FF50AF60
00005FF700EF30
0003EFA003FE00
002EFC0007FB00
02DFD1000BF700
1DFE20000EF400
CFF412458FF920
DFFFFFFFFFFFC0
7FFFEDBAEFFFA0
07520001FF8640
00000004FF6000
00000008FF4000
0000000CFF2000
0000001FFF0000
0000004FFD0000
0000007FFC0000
000000AFFB0000
000000AFFA0000
00000039610000
ENDCHAR
STARTCHAR five
ENCODING 53
SWIDTH 444 0
DWIDTH 14 0
BBX 15 25 0 -1
BITMAP
0000000002333100
000007ADFFFFFF80
00003FFFFFFFFFC0
00007FB7689EFF90
0000BF4000005D20
0001FE0000000100
0005F90000000000
000AF50000000000
000EF10000000000
005FB00466100000
00AF74DFFFE30000
00EFAFFFFFFB0000
03FFFF601CFF1000
02FFF40004FF1000
0048300002FF1000
0000000003FD0000
0000000005FA0000
0020000009F50000
07D000001EE10000
7FE000008F800000
EFF50005FD100000
EFFE76AFF4000000
9FFFFFFF60000000
1CFFFFE500000000
018CB71000000000
ENDCHAR
STARTCHAR six
ENCODING 54
SWIDTH 477 0
DWIDTH 15 0
BBX 13 25 1 -1
BITMAP
00000000367300
0000001AFFFF50
000001DFB3CFA0
00001CFA009FD0
0000AFD100CFC0
0005FF4003FF70
000DFB0006A600
007FF300000000
00DFC000000000
05FF618EFD5000
0AFF3DFCAFF400
1FFDDF9009FC00
4FFFFD0005FF10
8FFFF60004FF30
BFFAE00005FF30
CFF1200007FF20
DFF000000BFE00
CFE000001EFA00
BFE000005FF500
9FF10000CFD000
6FF40004FF6000
1FF9001DFB0000
09FF53CFD10000
01DFFFFB100000
0018BA50000000
ENDCHAR
STARTCHAR seven
ENCODING 55
SWIDTH 406 0
DWIDTH 13 0
BBX 14 25 1 -1
BITMAP
00000123444300
007DFFFFFFFFE1
03FFFFFFFFFFF4
06FFC742102EF3
05A2000000AFB0
0000000005FE10
000000002EF500
00000000CFA000
00000007FE2000
0000003FF70000
000000CFD00000
000006FF500000
00001EFC000000
00008FF4000000
0002FFC0000000
0009FF50000000
002FFD00000000
009FF600000000
01EFF100000000
06FFA000000000
0CFF5000000000
1FFF1000000000
5FFE0000000000
5FFE0000000000
05520000000000
ENDCHAR
STARTCHAR eight
ENCODING 56
SWIDTH 444 0
DWIDTH 14 0
BBX 15 25 -1 -1
BITMAP
0000000004775000
00000004DFBBEC10
0000005FD3003F90
000001EF30000CE0
000008FC00000DF0
00000DF900005FC0
00001FFA0001EF60
00002FFC001CFC00
00000FFF21CFE200
00000BFFADFE3000
000004FFFFD20000
000000DFFE100000
00001AFFFF600000
0001CFD7FFE10000
001BFD10BFF60000
00AFE3004FFB0000
04FF60000EFF1000
0BFD00000CFF2000
1FF600000BFF3000
4FF200000BFF1000
4FF100001EFB0000
3FF300008FF30000
0DFA0018FF700000
03EFDCFFE6000000
0017ABB720000000
ENDCHAR
STARTCHAR nine
ENCODING 57
SWIDTH 462 0
DWIDTH 15 0
BBX 14 25 0 -1
BITMAP
00000001576200
0000006EFFFE30
000008FF714FC0
00005FF5000AF4
0002EF800007F8
0009FE100006FB
001FF7000006FC
006FF1000007FD
00BFC000005DFC
00EF900000CFFB
01FF700002FFF9
01FF600008FFF7
00FF70001EEDF4
00DFB000AF8FF1
008FF517FA6FC0
002EFFFFA1CF70
0003CEC604FF20
000000000CFA00
001000006FF300
08600002EFA000
2FB0001DFE2000
5FF815DFF50000
4FFFFFFF500000
0AFFFFD4000000
006AA500000000
ENDCHAR
STARTCHAR colon
ENCODING 58
SWIDTH 226 0
DWIDTH 7 0
BBX 6 10 -1 -1
BITMAP
005CE9
02FFFE
02EFE4
001200
000000
000000
015500
5EFF40
EFFD10
6B8100
ENDCHAR
STARTCHAR semicolon
ENCODING 59
SWIDTH 212 0
DWIDTH 7 0
BBX 6 13 -1 -4
BITMAP
019DD4
08FFF7
08FFA0
002100
000000
000000
035100
7FFA00
EFFC00
8EF900
08F300
2E7000
960000
ENDCHAR
STARTCHAR less
ENCODING 60
SWIDTH 271 0
DWIDTH 9 0
BBX 11 14 -1 3
BITMAP
000000026840
0000008FFA00
00001AFF8000
0001CFF60000
003DFF500000
05EFE4000000
3FFE30000000
0DFD10000000
05FF70000000
00CFE2000000
003FFA000000
000AFF400000
0001EFC00000
000025400000
ENDCHAR
STARTCHAR equal
ENCODING 61
SWIDTH 374 0
DWIDTH 12 0
BBX 13 8 -1 7
BITMAP
00000012211000
002CEFFFFFFFA0
00AFFFFFFFFF70
00874321110100
00013444432000
05EFFFFFFFF700
0EFFFEEDDDD200
17420000000000
ENDCHAR
STARTCHAR greater
ENCODING 62
SWIDTH 250 0
DWIDTH 8 0
BBX 10 14 -2 3
BITMAP
0003881000
0002FFB000
00008FF500
00001EFD00
000006FF70
000000CFE1
0000004FF8
000001CFF9
00002DFF80
0002DFF600
003EFE4000
05EFD20000
6FFA100000
5410000000
ENDCHAR
STARTCHAR question
ENCODING 63
SWIDTH 413 0
DWIDTH 13 0
BBX 16 25 -1 -1
BITMAP
0000000479A85000
000006DFFFFFFD40
0001BFFD6447EFF3
000AFFA000003FFA
001FFE1000000EFC
001FFB0000000EFB
0009FE1000003FF7
0000100000009FF3
000000000002FFA0
00000000000CFE20
0000000001BFF400
000000005DFE4000
000016AEFFC20000
0002EFFFB5000000
0007FF8100000000
000BFF2000000000
000EFD0000000000
003FF90000000000
007FF40000000000
00BF700000000000
0042000000000000
0034100000000000
1CFFD00000000000
6FFFD00000000000
2BEA200000000000
ENDCHAR
STARTCHAR at
ENCODING 64
SWIDTH 648 0
DWIDTH 21 0
BBX 22 22 -1 -1
BITMAP
0000000001467762000000
00000003AFFFDDFFB20000
000001AFF9400006DE5000
00003EFC300000001CF400
0003EF900004871002ED00
002EF90002BFFFA7509F60
00BFC0004EF75FEEC03FB0
05FF3004EE304FFFB00FE0
0CF9002EF300BFFF400DF2
3FF300BF700176FD000DF3
8FC004FD000008F7000EF2
BF900BF700000EE1001FF0
CF701FF300006F90005FD0
CF603FF00002EF3000AF80
AF703FF2002CFC0002FF30
7FB01EFC68EFF7000AFA00
2FF206FFFFAAF2006FE200
09FC0036620DF005FF5000
01DFB100000EF9AFF60000
001BFD500009FFFD300000
00006CFEB2005640000000
0000002660000000000000
ENDCHAR
STARTCHAR A
ENCODING 65
SWIDTH 552 0
DWIDTH 18 0
BBX 20 32 -4 -8
BITMAP
00000000000000016750
000000000000007EFFF9
0000000000000BFE79FD
000000000000AFC204FE
000000000007FD1005FC
00000000003FF40007FA
0000000000CFA0000BF7
0000000005FF30000EF5
000000000DFB00002FF3
000000004FF500006FF0
00000000AFE000009FD0
00000001FF900000CFA0
00000007FF300001FF80
0000000CFD000003FF50
0000002FF9000006FF30
0000008FF4000009FF00
000000DFE344432CFD00
000016FFFFFFFFFFFEA7
004AFFFFFFFFFFFFFFE2
08FDBFFF4211139FFD30
01104FFD0000008FF400
0000AFF9000000AFF200
0001EFF5000000DFF000
0006FFF1000000FFD000
000BFFC0000002FFC000
002FFF80000004FFC000
008FFF30000005FFC000
01EFFC00000004FFE000
09FFE300000004FFF200
2A851000000002FFF800
00000000000000EFD800
00000000000000430000
ENDCHAR
STARTCHAR B
ENCODING 66
SWIDTH 607 0
DWIDTH 19 0
BBX 20 30 -1 -6
BITMAP
000000006EB787620000
00000017EFFFFFFFC300
000018EFFFB4226EFF50
0000DFFFFF400004FFE1
0001FFCDFE000000DFF6
0000BA2FFA000000BFF9
0000005FF5000000CFF8
0000009FF1000000EFF5
000000DFB0000005FFE1
000002FF7000000CFF80
000007FF2000005FFD10
00000BFD000002EFE300
00001FF900001CFF4000
00004FF52565DFE40000
00009FFBFFFFFF300000
0000DFEFFFFECFD30000
0002FF98EC610AFE2000
0006FF50000001EFC000
000AFF200000009FF400
000EFD000000008FF900
004FFA000000008FFB00
008FF600000000BFF900
00CFF300000001FFF600
01FFF000000008FFF200
06FFC00000003FFF9000
0AFF90000002DFFD1000
0EFF6000004EFFD20000
2FFF30004AFFFB100000
0DFFFCDEFFFC50000000
016ADEDCA73000000000
ENDCHAR
STARTCHAR C
ENCODING 67
SWIDTH 548 0
DWIDTH 18 0
BBX 18 30 0 -6
BITMAP
000000000026896100
000000002BFFFFFD30
00000006FFD512CFD0
0000008FFC10004FF5
000006FFD100003FF8
00003FFF3000005FFA
0000CFF70000008FFA
0006FFD0000000DFF8
001EFF70000004FFF5
006FFE1000003EFFE0
00DFF80000004FFF70
03FFF300000005A600
08FFD0000000000000
0DFF80000000000000
2FFF50000000000000
6FFF20000000000000
9FFD00000000000000
BFFB00000000000000
DFF900000000000000
EFF800000000000000
FFF600000000000000
EFF600000000000000
DFF600000000031000
AFF8000000002E4000
6FFB00000001CC0000
1FFF3000000BF30000
08FFC10003DF600000
01CFFE98BFF8000000
001BFFFFFE60000000
00005ACB7100000000
ENDCHAR
STARTCHAR D
ENCODING 68
SWIDTH 632 0
DWIDTH 20 0
BBX 21 30 -1 -6
BITMAP
0000000046864100000000
0000018EFFFFFE92000000
00003EFFFFEEFFFE500000
00008FFB510017EFF60000
00007D400000002EFE2000
0000210395000005FFB000
000000AFF7000000DFF200
000000FFF40000008FF800
000002FFF20000005FFB00
000004FFE00000003FFE00
000006FFA00000003FFF10
000009FF700000003FFF10
00000CFF400000004FFF10
00000EFF100000006FFF00
00002FFC000000008FFD00
00005FF900000000BFFA00
00009FF500000000EFF600
0000CFF100000004FFF100
0001FFC000000009FFA000
0004FF800000001FFF4000
0008FF400000008FFC0000
000CFE00000001EFF30000
002FFA0000000AFF900000
006FF60000005FFD100000
00BFF2000004FFE2000000
01FFC000004EFE40000000
09FF800008FFE300000000
1FFFC447EFFB2000000000
05EFFFFFFD600000000000
0016BCB940000000000000
ENDCHAR
STARTCHAR E
ENCODING 69
SWIDTH 523 0
DWIDTH 17 0
BBX 19 30 -1 -6
BITMAP
00000000000478740000
0000000029EFFFFFB100
00000007FFE7201CF900
000000AFFB100006FF10
000009FFB0000006FF30
00005FFE20000008FF20
0000DFF80000000EFD00
0004FFF20000009FF800
0008FFE0000008FFE200
0009FFD000003DFF5000
0009FFE0000000220000
0005FFF2000000000000
0000CFF8000000000000
00002EFF400000000000
000002CFEABA20000000
000007DFFFFF40000000
0004DFD737A600000000
006FFB10000000000000
04FFC000000000000000
1DFF2000000000000000
6FFB0000000000000000
BFF70000000000680000
DFF60000000001D50000
EFF80000000008E10000
DFFB000000004F800000
9FFF30000004ED100000
2EFFD300007EF3000000
05FFFFB89DFF40000000
004EFFFFFFD300000000
00006ACBA50000000000
ENDCHAR
STARTCHAR F
ENCODING 70
SWIDTH 585 0
DWIDTH 19 0
BBX 18 30 1 -6
BITMAP
000000024677764000
00016BEFFFFFFFFE50
006EFFEB975569FFF3
09FFD5000000006FF7
4FFE10000000003FF5
9FFE00000000007FF1
9FFFC991000000DF90
2EFFFF50000005FF20
029EF80000000CFA00
0000000000004FF200
000000000000CFA000
000000000004FF4000
00000000000CFC0000
0018ABCDEFFFFEB930
009FFFFFFFFFFFFE20
00DDA74215FF823100
002000000BFF100000
000000004FFA000000
00000000BFF4000000
00000003FFD0000000
0000000AFF80000000
0000001FFF20000000
0000007FFC00000000
000000CFF700000000
000002FFF400000000
000006FFF100000000
000009FFE000000000
00000BFFE000000000
00000DFFF000000000
000009A73000000000
ENDCHAR
STARTCHAR G
ENCODING 71
SWIDTH 612 0
DWIDTH 20 0
BBX 19 31 0 -7
BITMAP
00000000000279840000
0000000003BFFFFF7000
000000007FFC428FF300
00000008FF90000EF800
0000007FFA00000CFB00
000004FFD100000DFC00
00001DFF5000001FFC00
00009FFB0000006FFA00
0002FFF4000002EFF600
000AFFC000002CFFF200
002FFF7000002EFF9000
008FFF10000004EB1000
00DFFB00000000000000
04FFF600000000000000
08FFF200000000000000
0CFFD000000000000000
0FFF9000379BCDEFFF40
3FFF6000CFFFFFFFFE00
5FFF3000565547FF8200
7FFF1000000007FF1000
7FFE000000000BFC0000
7FFD000000001FF60000
6FFC000000008FE10000
4FFD00000001EF800000
1FFE00000009FD100000
0BFF2000004FF4000000
04FF800003EF80000000
00AFE3005EFA00000000
001CFFBDFF8000000000
00007DFFC40000000000
00000011000000000000
ENDCHAR
STARTCHAR H
ENCODING 72
SWIDTH 649 0
DWIDTH 21 0
BBX 22 30 -1 -6
BITMAP
0000000002100000000000
00000005DF600000001ADC
0000000EFF200000009FFA
0000003FFC00000000EFF4
0000007FF800000003FFE0
000000BFF400000007FF90
000000EFF00000000BFF40
000003FFB00000000FFE00
000006FF700000004FF900
00000AFF300000008FF500
00000DFE00000000CFF100
00002FFA00000001FFB000
00005FF600000004FF7000
00009FF200001229FF2000
0000DFF9ACDFFFFFFFFD60
002AFFFFFFEDEFFFFFFF50
008FFFA8CFD2005FFCE800
0008FF3006FD108FF11000
000CFF00006FA0BFB00000
000FFC00000BF3EF800000
004FF9000003FBFF400000
007FF6000000DFFF100000
00BFF40000009FFD000000
00EFF10000007FFA000000
03FFD00000007FF7000000
06FFB00000009FF4000000
0AFF80000000AFF2000000
0EFF60000000DFF0000000
2FFF40000001FFD0000000
3DC7100000004630000000
ENDCHAR
STARTCHAR I
ENCODING 73
SWIDTH 537 0
DWIDTH 17 0
BBX 20 30 -3 -6
BITMAP
00000000000000046400
00000000000005DFFF40
0000000000009FFABF80
000000000008FFA0AF90
00000000004FFD10BF80
0000000000CFF500EF80
0000000003FFE001FF70
0000000007FFA004FF50
0000000009FF6008FF30
000000000AFF300BFF10
000000000AFF100FFD00
0000000008FF004FFA00
0000000006FF008FF600
0000000002FF20CFF300
0000000000CF51FFE000
00000000005D15FFA000
00000000000009FF6000
0000000025789EFFBA96
000005AEFFFFFFFEDCC7
0006DFFFEA759FF60000
00AFFFA40000BFE10000
08FFD3000001FF900000
2FFF30000006FF400000
5FFE0000000BFC000000
5FFE0000002FF5000000
1EFF4000009FB0000000
07FFD10003FF30000000
00AFFD301DF600000000
0008FFFDEF7000000000
000028BCA40000000000
ENDCHAR
STARTCHAR J
ENCODING 74
SWIDTH 500 0
DWIDTH 16 0
BBX 22 31 -3 -7
BITMAP
0000000000002455553200
0000000001CFFFFFFFFFE9
0000000003FFFFEEFFEFFC
000000000184200AFF1021
000000000000000EFC0000
000000000000004FF90000
000000000000008FF60000
00000000000000CFF20000
00000000000001FFE00000
00000000000004FFB00000
00000000000008FF700000
0000000000000CFF400000
0000000000001FFF100000
0000000000005FFC000000
0000000000009FF9000000
000005C80000DFF5000000
00009FFF3001FFF2000000
0009FFFF5005FFE0000000
005FFFB41009FFA0000000
01EFF800000DFF60000000
07FFA000002FFF10000000
0DFE1000007FFA00000000
2FF7000000CFF400000000
6FF2000003FFC000000000
8FE0000009FF5000000000
8FE000001EFC0000000000
6FF00000AFE30000000000
1EF50006FF500000000000
05FE65AFE5000000000000
004CFFFA20000000000000
0000120000000000000000
ENDCHAR
STARTCHAR K
ENCODING 75
SWIDTH 497 0
DWIDTH 16 0
BBX 20 33 -2 -9
BITMAP
00000000164000000240
00000005FF900000CFF2
0000000BFF400000EFF2
0000002FFD000001FFF0
0000006FF8000004FFD0
000000BFF300000AFF80
000001FFD000001FFF20
000005FF8000009FFA00
000009FF400002FFE200
00000DFE00000CFF6000
00002FF900009FFA0000
00006FF50005FFB00000
0000AFF1005FFC100000
0000DFC006FFA0000000
0002FF819FF700000000
0005FFADFB3000000000
002BFFFFDAA930000000
006FFFCBBDFFF7000000
002FFA00007FFF100000
004FF700000DFF300000
008FF500000CFF200000
00BFF200000EFE000000
00EFE000004FFB000000
03FFC000009FF6000000
07FF900001EFF1000000
0AFF700006FFA0000000
0EFF50000AFF40000000
2FFF50000DFF00000000
6FFF50000EFE00000000
5A8300000BFF40000000
0000000002EFD4002100
00000000005EFFEEF400
0000000000028BB83000
ENDCHAR
STARTCHAR L
ENCODING 76
SWIDTH 492 0
DWIDTH 16 0
BBX 21 31 -4 -7
BITMAP
0000000000000000157600
0000000000000005EFFF90
000000000000004FFFFFE0
00000000000001EFE59FF0
00000000000009FF608FE0
0000000000001FFD00CFA0
0000000000006FF805FF30
000000000000AFF43EFA00
000000000000EFF5EFD100
000000000002FFFFFD2000
000003000006FFFFC20000
00000EDAABEFFFF8000000
000006EFFFFFFF20000000
00000004555FFC00000000
00000000004FF800000000
00000000007FF400000000
0000000000BFF100000000
0000000000EFB000000000
0000000004FF7000000000
0000000009FF2000000000
000000000EFB0000000000
000000004FF50000000000
00000000AFD00000000000
00000102FF600000000000
006CFFEDFC000000000000
09FFFFFFFA100000000000
1FFB46FFFFD50000068000
2FFAAFE6AFFFD979DF7000
08FFFA2005DFFFFFFE1000
001210000017DFFFE40000
0000000000000244100000
ENDCHAR
STARTCHAR M
ENCODING 77
SWIDTH 733 0
DWIDTH 23 0
BBX 28 30 -4 -6
BITMAP
0000000000000031000000000320
0000000000007EF900000005DFF1
000000000003FFFA0000003FFFF1
000000000009FFFB000000AFFFE0
00000000000EFFFB000003FFDFC0
00000000005FF9FB00000AFDAF90
0000000000AFB8FC00002FF6DF60
0000000001FF78FC00009FD2FF30
0000000005FF3AFB0001FF65FE00
000000000AFE0BFA0008FD09FB00
000000000EFA0DF8001EF60DF800
000000004FF70EF7006FE12FF500
000000009FF31FF600CF705FF200
00000000EFE02FF404FE109FD000
00000002FFB03FF30BF900DFA000
00000006FF705FF22FF201FF7000
0003E109FF406FF28FB005FF4000
001DC00CFF106FF2EF5008FF1000
009F500FFC006FF8FD000CFD0000
01FD003FF8006FFEF8001FFA0000
07F8007FF4005FFFF3004FF70000
0BF500AFF1004FFFD0007FF50000
0EF200EFD0002FFFA000AFF30000
2FF004FF90000DFF9000DFF10000
2FF008FF600008FE4001FFF00000
2FF20DFF200000410004FFF10000
0FF55FFC000000000005FFF30000
0BFDEFF6000000000003FFF80000
04FFFFC0000000000000CFFF7200
004ACA1000000000000019CB7100
ENDCHAR
STARTCHAR N
ENCODING 78
SWIDTH 541 0
DWIDTH 17 0
BBX 23 30 -2 -6
BITMAP
000000000000000000488100
0000004CF600000009FFFC00
000000CFF90000006FFEDF20
000001FFFB000001EFE25F30
000004FFFC000005FF707F20
000008FFFD00000AFF10DE00
00000BFEFE00000EFB05F900
00000EF8FF00003FF72EE200
00003FF4FF10006FF7EF5000
00006FC1FF2068BFFFE50000
0000AF90FF2019FFFA200000
0000EF50EF2000EFA0000000
0002FF20CF3001FF70000000
0006FE00CF3003FF40000000
000AFB00BF4006FF20000000
000DF800BF4008FE00000000
002FF500AF500BFC00000000
006FF200AF600DF900000000
00AFF0009F701FF600000000
00DFC0008F904FF400000000
02FFA0007FA08FF100000000
05FF80006FC0BFD000000000
09FF60004FE0EF9000000000
0CFF40002FF5FF6000000000
0FFF40000FFCFF2000000000
2FFF40000BFFFD0000000000
4FFF400008FFFA0000000000
4FFF600004FFF60000000000
1FFF800000DFE10000000000
059720000038300000000000
ENDCHAR
STARTCHAR O
ENCODING 79
SWIDTH 567 0
DWIDTH 18 0
BBX 17 31 0 -7
BITMAP
0000000029D9430000
00000005EFFFFF8000
0000005FFFF99FF300
000003FFDC500EFA00
00001DFF32000AFE00
00008FF7000008FF20
0001EFD0000006FF50
0009FF60000005FF60
001FFD00000004FF70
007FF700000004FF80
00CFF200000004FF80
03FFC000000005FF70
07FF8000000006FF60
0BFF4000000007FF50
0EFF1000000009FF40
2FFD000000000BFF20
4FFB000000000EFE00
6FF9000000003FFB00
8FF7000000006FF600
AFF600000000BFF200
AFF500000001FFC000
AFF500000006FF7000
AFF50000000CFE1000
8FF60000004FF80000
6FF7000000CFE10000
2FFA000007FF700000
0CFE00004FFB000000
04FF7005EFC1000000
008FFCDFFA10000000
0006DFFC5000000000
000001000000000000
ENDCHAR
STARTCHAR P
ENCODING 80
SWIDTH 552 0
DWIDTH 18 0
BBX 21 30 -2 -6
BITMAP
0000000000368997300000
000000039EFFFFFFFB1000
000003BFFF83004CFFC000
00007FFFFF400000CFF600
0003FFD5FF1000004FFC00
0001FD26FD0000000FFF10
0000510AF90000000EFF20
0000000EF50000000EFF20
0000003FF20000002FFE00
0000007FD00000005FFB00
000000BFA0000000BFF500
000000FF60000003FFD000
000004FF3000000CFF4000
000008FE000000AFF90000
00000CFB00001AFFA00000
00001FF90004DFF8000000
00005FF605BFFD50000000
00009FFDEFFD7000000000
0000DFFB97300000000000
0002FFC000000000000000
0005FF9000000000000000
0009FF6000000000000000
000DFF3000000000000000
002FFE0000000000000000
006FFB0000000000000000
00BFF70000000000000000
02FFF30000000000000000
0AFFD00000000000000000
4FFF500000000000000000
0574000000000000000000
ENDCHAR
STARTCHAR Q
ENCODING 81
SWIDTH 583 0
DWIDTH 19 0
BBX 18 30 0 -6
BITMAP
000000000268850000
00000002AFFFFFC100
0000004EFF945EFB00
000004FFF40003FF40
00003EFF400000BFB0
0000CFF80000007FF1
0006FFC00000005FF4
001EFF500000003FF6
006FFC000000003FF7
00CFF6000000003FF8
03FFE1000000005FF7
07FFB0000000007FF5
0BFF70000000009FF3
0EFF3000000000DFF1
1FFF1000000002FFD0
2FFE0000000007FF90
2FFD000000000BFF40
1FFE000000002FFE00
0DFF200000008FF900
07FF80000001EFF300
00DFF8300006FFB000
002CFF60000DFF3000
00002100007FFA0000
00017AA842EFE10000
005EFFFFFFFF400000
03FFE636FFFA000000
0AFF300AFFFF500000
0AFF66DFF88FF80000
06FFFFFE5004DFD631
006BDB71000006CEB2
ENDCHAR
STARTCHAR R
ENCODING 82
SWIDTH 560 0
DWIDTH 18 0
BBX 20 32 -1 -8
BITMAP
00000000036899850000
00000039EFFFFFFFD300
00002BFFF930039FFE20
0006EFFFF7000008FFA0
000FFF6EF4000001EFF1
000CE33FF1000000BFF4
0003307FC0000000AFF6
000000BF90000000BFF6
000000EF60000000DFF4
000003FF20000002FFE1
000007FE00000007FFA0
00000BFB0000001EFF30
00000EF70000008FF900
00004FF4000005FFC100
00019FF300006FFD2000
002DFFFFC32BFFC20000
009FFFC8FFFFF8100000
006FFFEEFFFA20000000
000AFFDB8CF900000000
000BFF3005FE00000000
000FFF0001FF40000000
004FFC0000DF80000000
007FF90000BFB0000000
00BFF60000AFE0000000
00EFF20000AFF1000000
05FFE000009FF3000000
0BFF9000008FF5000000
4FFF4000007FF7000000
CFFC0000005FFC000000
16610000001FFFCAA100
000000000009FFFE3000
0000000000007B910000
ENDCHAR
STARTCHAR S
ENCODING 83
SWIDTH 474 0
DWIDTH 15 0
BBX 18 31 -2 -7
BITMAP
000000000279AA8200
000000019FFFFEFF70
0000002DFFC5008FF3
000001DFF800001FF9
00000AFF7000000EFC
00003FFB0000000FFC
00007FF50000003FFA
0000AFF40000009FF6
0000AFF6000001EFE1
00007FFB000005C920
00003FFF4000000000
00000BFFD100000000
000002FFFC10000000
0000006FFFC0000000
00000009FFF9000000
00000000BFFF300000
000000001DFFB00000
0000000005FFF10000
0000000000DFF40000
00000000007FF60000
00000000003FF60000
00374000001FF50000
0AFF3000001FF20000
5FFE0000004FE00000
7FFD000000AF900000
5FFF100003FF300000
1FFF70001CFA000000
09FFF624CFD1000000
01DFFFFFFD20000000
0019EFFD7100000000
000001000000000000
ENDCHAR
STARTCHAR T
ENCODING 84
SWIDTH 423 0
DWIDTH 14 0
BBX 17 30 1 -6
BITMAP
000001123222100000
39BDEFFFFFFFFFDC20
CFFFFFFFFFFFFFFE10
FFFDA77FFD11222100
6410006FF900000000
000000AFF400000000
000000DFF100000000
000002FFB000000000
000005FF7000000000
000009FF3000000000
00000DFE0000000000
00001FFA0000000000
00005FF60000000000
00008FF20000000000
0000CFE00000000000
0001FFA00000000000
0004FF600000000000
0008FF300000000000
000BFF000000000000
000EFC000000000000
003FF9000000000000
007FF7000000000000
00AFF4000000000000
00EFF1000000000000
02FFE0000000000000
06FFB0000000000000
09FF90000000000000
0DFF70000000000000
1FFF50000000000000
2BA600000000000000
ENDCHAR
STARTCHAR U
ENCODING 85
SWIDTH 574 0
DWIDTH 18 0
BBX 20 30 0 -6
BITMAP
00000000000000000120
0000028CE1000001BFF7
00000DFFB0000006FFF2
00004FFF5000000AFFC0
00009FFE0000000EFF70
0000DFF90000003FFF20
0002FFF40000007FFC00
0007FFD0000000BFF800
000BFF80000000EFF300
000EFF40000003FFE000
004FFE00000007FF9000
008FFA0000000BFF5000
00BFF50000000EFF1000
00EFF10000003FFB0000
03FFC00000006FF70000
06FF700000009FF30000
09FF30000000DFE00000
0CFF00000001FFB00000
0FFC00000004FF800000
3FF900000009FF500000
5FF70000000DFF300000
7FF50000004FFF100000
9FF3000000BFFE000000
AFF3000002FFFD000000
AFF400000AFFFC000000
9FF600005FEEFB000000
7FFC0003EF5CFC000000
2FFFA68EF80BFE000000
07FFFFFF7007FF500000
004ACC82000077100000
ENDCHAR
STARTCHAR V
ENCODING 86
SWIDTH 503 0
DWIDTH 16 0
BBX 18 30 1 -6
BITMAP
000000000000002300
002CFF30000001EF60
007FFC00000007FFE1
00CFF60000000EFF60
00FFF10000005FFC00
04FFA0000000BFF500
07FF60000002FFD000
0AFF20000008FF8000
0CFD0000000DFF2000
0EFB0000003FFC0000
2FF80000008FF70000
4FF6000000DFF20000
5FF4000003FFC00000
6FF2000007FF600000
8FF100000CFF100000
8FF100002FFB000000
8FF100007FF6000000
8FF10000BFF1000000
7FF10001FFB0000000
6FF10006FF50000000
5FF2000AFE00000000
3FF2001EF800000000
1FF4004FF200000000
0EF6009FA000000000
0BF800EF4000000000
08FA05FC0000000000
04FE3DF50000000000
00DFFFC00000000000
007FFF300000000000
000AF7000000000000
ENDCHAR
STARTCHAR W
ENCODING 87
SWIDTH 817 0
DWIDTH 26 0
BBX 26 30 0 -6
BITMAP
000000022000000000000027A4
000006EFE2000000000000FFF8
00001EFF5000004B200000DFF9
00005FFC000004FF500000BFFA
0000BFF400000DFF300000AFF9
0002FFD000005FFF100000AFF8
0007FF700000AFFD000000AFF6
000CFF200000DFFA000000AFF5
001FFC000000FFF6000000BFF2
006FF7000002FFF2000000CFF0
00AFF2000004FFD0000000EFD0
00EFD0000004FF90000002FFA0
02FF90000005FF50000004FF60
05FF50000005FF10000008FF30
09FF10000009FE0000000BFE00
0BFD0000000EFC0000000EFA00
0DFA0000005FFA0000003FF600
0FF7000000AFF90000008FF200
1FF5000001EFF8000000DFC000
2FF4000006FFF7000003FF6000
3FF300000CFFF7000008FF1000
3FF300003FFBF600000DF90000
2FF30000AFA8F700004FF30000
1FF40002FF38F80000BFB00000
0EF6000AFB07FA0004FF300000
0CF9003FF304FD000CF9000000
08FE22DF9002FF309FE1000000
03FFFFFD1000DFECFF40000000
00AFFFD200007FFFF600000000
001AEA2000000AFD5000000000
ENDCHAR
STARTCHAR X
ENCODING 88
SWIDTH 579 0
DWIDTH 19 0
BBX 24 30 -2 -6
BITMAP
0000029B8100000000001620
00003EFFFB0000000005EFE2
0000DE38FF500000005FFFD7
0006F800DFA0000003FFFA10
000BF4008FE000001DFFA000
000EF5004FF20000AFFB0000
000DFB001FF50005FFD10000
0008FFC79FF7001EFE300000
0002FFFFFDFA00AFF6000000
00005EFF69FC05FFA0000000
0000015307FE1EFE10000000
0000000005FFAFF500000000
0000000003FFFFA000000000
0000000001FFFE1000000000
0000000000FFF50000000000
0000000004FFA00000000000
000000001DFF800000000000
000000009FFF900000000000
00000004FFFFB00000000000
0000001DFE9FC00000000000
0000008FF66FE00000000000
000003FFB04FF10000000000
00000DFF202FF40000000000
00008FF8000FF80000000000
0003FFD1000CFC0000000000
001DFF500008FF1000019000
00AFFB000004FF70002D7000
2BFFE2000000DFE638EB0000
2DFF500000004FFFFF900000
00420000000004BDA4000000
ENDCHAR
STARTCHAR Y
ENCODING 89
SWIDTH 532 0
DWIDTH 17 0
BBX 19 30 0 -6
BITMAP
00000134000000016610
00005EFE1000002EFF20
0000BFFA0000007FFC00
0001FFF4000000AFF800
0005FFD0000000EFF300
0009FF80000002FFE000
000DFF30000005FF9000
002FFD00000008FF5000
006FF90000000CFF1000
00AFF40000001FFC0000
00DFF10000004FF80000
01FFB00000009FF50000
04FF70000000EFF10000
07FF40000005FFC00000
0AFF1000000CFF800000
0CFD0000005FFF400000
0EFC000001DFFF100000
0EFD00000AFAFC000000
0CFF4001AFA7F8000000
08FFFAAEFB0BF5000000
01CFFFFE801FF1000000
00068861006FB0000000
0000000000DF70000000
0000000005FF20000000
000000000DF900000000
06E200009FF200000000
4FFD402AFF7000000000
BFFFFFFFF90000000000
5FFFFFFE700000000000
029BCB71000000000000
ENDCHAR
STARTCHAR Z
ENCODING 90
SWIDTH 455 0
DWIDTH 15 0
BBX 19 30 -3 -6
BITMAP
00000000023444332000
0000008DFFFFFFFFFF80
000002FFFFFFFFFFFFC0
000006FFDA864334FFC0
0000047200000005FFA0
000000000000000BFF50
000000000000005FFD00
00000000000001DFF500
0000000000000AFFB000
0000000000006FFE2000
000000000003EFF50000
00000000001DFF800000
0000000000AFFA000000
0000000007FFC1000000
000000004FFE20000000
00000002EFF400000000
0000001DFF6000000000
000000BFF90000000000
000008FFB00000000000
00004FFD100000000000
0001EFF3000000000000
000AFF60000000000000
004FFA00000000000000
00DFD100000000000000
06FF5000000000000000
0DFC0002343310000000
6FF88CFFFFFFFEA00000
7FFFFFFFFFFFFF900000
4FFFFDCCDFFFFB000000
09630000001461000000
ENDCHAR
STARTCHAR bracketleft
ENCODING 91
SWIDTH 202 0
DWIDTH 6 0
BBX 12 31 -2 -4
BITMAP
000000017885
0000000AFFF6
0000001FFEB3
0000005FE200
000000AF9000
000000EF4000
000003FE0000
000007FA0000
00000CF60000
00001FF20000
00005FD00000
00009F900000
0000CF600000
0001FF200000
0005FD000000
0009F9000000
000CF6000000
001FF2000000
004FD0000000
008FA0000000
00BF60000000
00EF30000000
02FE00000000
06FC00000000
09F800000000
0CF500000000
0FF300000000
3FF200000000
5FFA51000000
6FFFF0000000
188760000000
ENDCHAR
STARTCHAR backslash
ENCODING 92
SWIDTH 273 0
DWIDTH 9 0
BBX 7 25 1 -1
BITMAP
16500000
AFC00000
9FD00000
7FF00000
5FF10000
3FF30000
0FF50000
0DF60000
0BF80000
08FA0000
06FC0000
04FE0000
02FF1000
00EF4000
00CF6000
00AF9000
008FC000
005FF000
003FF300
001FF600
000EFA00
000BFD00
0009FF20
0007FF50
00027500
ENDCHAR
STARTCHAR bracketright
ENCODING 93
SWIDTH 216 0
DWIDTH 7 0
BBX 12 31 -4 -4
BITMAP
000000036773
00000009FFFD
000000047EFC
000000000AFA
000000000BF7
000000000DF4
000000001FF1
000000004FC0
000000007F90
00000000BF60
00000000EF30
00000003FE00
00000006FB00
0000000AF700
0000000EF400
0000002FF100
0000006FC000
000000AF8000
000000DF4000
000002FF1000
000006FC0000
00000AF80000
00000EF40000
00004FE00000
00008FA00000
0000CF600000
0001FF200000
0008FC000000
08CFF8000000
0EFFF2000000
199940000000
ENDCHAR
STARTCHAR asciicircum
ENCODING 94
SWIDTH 287 0
DWIDTH 9 0
BBX 12 13 -1 11
BITMAP
000000002100
0000006FFD00
000002FFFF00
00000BFAFF10
00005FE2EF30
0000DF70DF40
0007FD10CF60
002EF500BF80
00AFB000AFA0
04FF20009FC0
0CF800008FE0
6FD100007FF1
351000002740
ENDCHAR
STARTCHAR underscore
ENCODING 95
SWIDTH 439 0
DWIDTH 14 0
BBX 17 4 -4 -1
BITMAP
002344555555532000
2EFFFFFFFFFFFFFE80
7FFFFFFFFFFFFFFF80
154321100001234410
ENDCHAR
STARTCHAR grave
ENCODING 96
SWIDTH 567 0
DWIDTH 18 0
BBX 6 5 8 17
BITMAP
4C7000
BFFC20
18EFE3
0019FB
000022
ENDCHAR
STARTCHAR a
ENCODING 97
SWIDTH 435 0
DWIDTH 14 0
BBX 18 15 -1 -1
BITMAP
000000011000000000
000001AFFA00000000
00003EFDFF30000000
0003EF62FE41000000
001EF8037FF2000000
00AFD0004FE0000000
04FF50007FB0000055
0AFE0000BF800003E3
1FFA0000EF50001D80
4FF70005FF2000BB00
7FF6003EFE0009E100
7FF905EBFD008F3000
4FFFFFD1DF7AF50000
0CFFF9108FFF600000
016510000552000000
ENDCHAR
STARTCHAR b
ENCODING 98
SWIDTH 415 0
DWIDTH 13 0
BBX 17 24 0 -1
BITMAP
000002860000000000
00001EFC0000000000
00008FFA0000000000
0001EFF80000000000
0006FFF40000000000
000CFFF10000000000
002FFFB00000000000
007FFF700000000000
00CFFF200000000000
01FFFC000000000000
05FFF6000000000000
09FFF1017400000000
0CFFA01DFE10001630
1FFF305FFF747BFC20
3FFB001CFFFFE94000
6FF30001FF72000000
7FB00004FF20000000
8F800009FB00000000
8F70001FF500000000
7F80008FB000000000
5FA004FE2000000000
1EF78FF40000000000
07FFFD300000000000
004750000000000000
ENDCHAR
STARTCHAR c
ENCODING 99
SWIDTH 363 0
DWIDTH 12 0
BBX 16 15 -1 -1
BITMAP
0000000210000000
00003AFFE5000000
0004EFD7EE000000
003EFB14FF000000
00CFD11FFC000000
05FF301FF4000000
0BFB0004200000B1
1FF60000000009B0
4FF3000000007E20
4FF200000006F400
3FF30000006F6000
0EF9000009F70000
09FF9325DE500000
01CFFFFFB3000000
0006BCA500000000
ENDCHAR
STARTCHAR d
ENCODING 100
SWIDTH 483 0
DWIDTH 15 0
BBX 19 24 -1 -1
BITMAP
00000000000000420000
0000000000000CFD0000
0000000000003FFF1000
0000000000007FFF1000
000000000000BFFF0000
000000000001FFFD0000
000000000005FFF90000
000000000009FFF60000
00000000000CFFF10000
00000000001FFFB00000
0000039B705FFF500000
00009FDAF78FFD000000
000AFB109ECFF6000000
007FD1005FFFE1000000
01EF50003FFF60000000
07FC000009FC000001A0
0DF600000BF400000A90
1FF100001ED000008D10
4FE00000BFB00007E300
5FE0000AFF80006F5000
4FF401BEBF7007F60000
0EFEBEE37FD5BF600000
06FFFA202FFFD4000000
0024200004A710000000
ENDCHAR
STARTCHAR e
ENCODING 101
SWIDTH 372 0
DWIDTH 12 0
BBX 16 14 -1 -1
BITMAP
000004BFF9000000
00008FDDFF200000
0008FB13FF200000
004FE107FC000000
00DF702EE2000000
06FF13EF50000042
0CFC6FD3000004E2
1FFFFA1000003E50
2FFE50000004E800
2FF90000004EA000
0EFD100008FA0000
07FFC537DF700000
00AFFFFFB3000000
0005AB8300000000
ENDCHAR
STARTCHAR f
ENCODING 102
SWIDTH 325 0
DWIDTH 10 0
BBX 17 38 -3 -15
BITMAP
000000001430000000
00000008FFC0000000
00000009FFC0000000
00000007FFC0000000
00000007FF90000000
00000008FF50000000
0000000AFF10000000
0000000DFB00000000
0000001FF700000000
0000005FF200000000
0000008FC000000000
000000CF8000000000
000001FF3000000000
000006FD0001356630
00000BFA6ADFFDB930
00003FFFFD84100000
0005FFE93000000000
000EFF800000000000
000FFF300000000000
0009FF600000000000
0009FFF80000000000
000CFAEF7000000000
001FF24FF300000000
005FD009FC00000000
009F9001EF40000000
00DF5000BF90000000
01FF20008FB0000000
05FE00008FB0000000
09FB0000AFA0000000
0DF70000EF60000000
1FF30005FF20000000
5FF0000DFB00000000
8FC0008FF300000000
CF9006FF8000000000
EF928FFC0000000000
FFFFFFD20000000000
CFFFFC200000000000
3DFC60000000000000
ENDCHAR
STARTCHAR g
ENCODING 103
SWIDTH 459 0
DWIDTH 15 0
BBX 18 29 -1 -16
BITMAP
000007CD8000100000
0001CFEDF72EF20000
000BFB10CE8FB00000
007FD1006FEF700000
01EF50004FFF300000
06FE00001DFE000003
0AF9000008FB00007D
0DF700000CF80006F3
0FF600003FF4007F60
0EF70001CFF109F600
0CFC001BFFC2BF5000
08FFDBEDAFDED30000
01DFFFB1DFFB100000
00156308FF60000000
000001BFFE00000000
00002CFEFB00000000
0003DF7CF700000000
004EF61FF400000000
03EF705FF100000000
0CFA008FC000000000
3FF200CF9000000000
6FD001FF6000000000
7FC005FF2000000000
5FC009FD0000000000
3FE00EF80000000000
0EF69FF20000000000
07FFFFB00000000000
00BFFF300000000000
000794000000000000
ENDCHAR
STARTCHAR h
ENCODING 104
SWIDTH 465 0
DWIDTH 15 0
BBX 18 23 -1 -1
BITMAP
000008CE3000000000
00000EFF4000000000
00000FFF2000000000
00002FFD0000000000
00005FF90000000000
00008FF40000000000
0000BFE00000000000
0000FFA00000000000
0003FF600000000000
0007FF102672000000
000AFB07EFFE100000
000EF79FEFFF400000
002FFAE508FF400000
006FFE3007FF200000
009FF4000AFD000001
00DF90000EF900004E
02FF40004FF30003E6
05FF10009FC0002E90
09FD0000DF7003E900
0DFA0001FF407F9000
1FF70002FFEEF70000
3FF40000CFFD300000
068000001861000000
ENDCHAR
STARTCHAR i
ENCODING 105
SWIDTH 274 0
DWIDTH 9 0
BBX 12 22 0 -1
BITMAP
000005400000
00007FD00000
0000EFD00000
0000AE400000
000000000000
000000000000
000000000000
000000000000
000252000000
008FF2000000
01FFD0000000
06FF80000000
0AFF20000000
0DFC000000A2
1FF8000009D0
3FF400007F40
4FE00006F700
5FB0006F9000
5FB008FA0000
1FFADFA00000
06FFF7000000
002520000000
ENDCHAR
STARTCHAR j
ENCODING 106
SWIDTH 267 0
DWIDTH 9 0
BBX 19 36 -7 -15
BITMAP
0000000000006D400000
000000000004FF600000
00000000000AFE200000
000000000006C4000000
00000000000000000000
00000000000000000000
00000000000000000000
00000000000000000000
00000000002200000000
0000000006FF30000000
000000000BFF10000000
000000001FFC00000000
000000004FF700000000
000000008FF300000A30
00000000CFD00000AD10
00000001FF90000AE200
00000005FF5001BE3000
00000008FF102CE30000
0000000BFD03DD200000
0000000EF97FC1000000
0000002FFEF900000000
0000005FFD4000000000
000004EFF10000000000
00005FFFB00000000000
0005FFFF800000000000
004FF7FF400000000000
01DF76FF100000000000
09FB0AFB000000000000
2FF30DF7000000000000
8FB02FF3000000000000
AF707FD0000000000000
9F60BF80000000000000
6F72FF30000000000000
1EECFC00000000000000
03EFD200000000000000
00020000000000000000
ENDCHAR
STARTCHAR k
ENCODING 107
SWIDTH 440 0
DWIDTH 14 0
BBX 18 24 -1 -1
BITMAP
000000220000000000
00002EFF2000000000
00002FFF1000000000
00003FFD0000000000
00005FF90000000000
00007FF50000000000
0000AFF10000000000
0000DFB00000000000
0001FF600000000000
0005FF100000000000
0008FB003892000000
000CF51AFFFC000000
000FF2CFCFFF000000
004FBBD308FC000000
007FED200CF3000000
00BFE200AF50000020
00EE38FFF4000002E2
03FA0FFFFC00001D80
07F70685FE0000AD00
0BF40005FB0008E300
1FF1000BF7009F5000
5FD0000DFA6CF70000
8F90000BFFFF600000
48300003DEA2000000
ENDCHAR
STARTCHAR l
ENCODING 108
SWIDTH 218 0
DWIDTH 7 0
BBX 9 23 -1 -1
BITMAP
000019DD10
00002FFF20
00002FFE00
00004FFB00
00007FF700
0000AFF300
0000EFE000
0002FFA000
0006FF6000
0009FF2000
000DFD0000
001FF90000
005FF60000
009FF20000
00CFD00000
01FF900000
04FF500000
08FF100000
0BFD000000
0FF9000000
3FF5000000
6FF1000000
0770000000
ENDCHAR
STARTCHAR m
ENCODING 109
SWIDTH 717 0
DWIDTH 23 0
BBX 27 14 -1 -1
BITMAP
0000000001430000142000000000
000499006EFF3006EFF400000000
000DFE09FFFF70AFFFFA00000000
000FFBAE76FF9AFA9FFB00000000
004FFEE300FFEF501FFB00000000
007FFF5001FFF7003FF800000760
00BFFA0004FFB0007FF500004F20
00EFF20008FF3000BFF20002E700
03FFB0000BFB0000EFD0000CC000
07FF60001FF60003FF9000AE2000
0AFF20005FF10005FF600AF40000
0EFD0000AFD00006FFA6CF500000
2FF90000EF900003FFFFE4000000
08500000540000005AA710000000
ENDCHAR
STARTCHAR n
ENCODING 110
SWIDTH 461 0
DWIDTH 15 0
BBX 19 14 -1 -1
BITMAP
00000000165000000000
0008ED07EFF900000000
001FFA9FEFFE00000000
004FFDF60BFF20000000
007FFF500AFF10000000
00BFF8000CFC00000910
00EFC0001FF900007C00
02FF50004FF50004F400
06FF10008FF1002E8000
0AFD0000DFB001DC0000
0EF90001FF801CD20000
3FF60002FFA6ED200000
7FD10000DFFFC2000000
561000002AB700000000
ENDCHAR
STARTCHAR o
ENCODING 111
SWIDTH 393 0
DWIDTH 13 0
BBX 17 14 -1 -1
BITMAP
000028A71000000000
0006FFFFE300000000
002EFB24FD10000030
00BFE000BF60001A90
04FFE0009F9004DA10
0AFFF2009F92AF8000
0EFCFC31BFEFD40000
1FF2CFFFFFE7100000
2FF018BDFF10000000
1FF0000AFA00000000
0FF3004FF400000000
0BFB36EF9000000000
03EFFFF80000000000
002797300000000000
ENDCHAR
STARTCHAR p
ENCODING 112
SWIDTH 451 0
DWIDTH 14 0
BBX 21 27 -4 -14
BITMAP
0000001410014500000000
000003EFC05DFFA0000000
000000FFD7FEFFF1000000
000001FFFF703FF4000000
000004FFF6000EF4000000
000007FF80001FF2000150
00000BFC00005FE0000B70
00000EF50000CF90008D10
00003FF10006FF3006F300
00006FD6402EFA006F6000
0000AFFFFBCFE118F70000
0000EFFFFFFFA7DF700000
0003FFAFFFFFFFD4000000
0007FD1ADB357500000000
000AFA0000000000000000
000EF70000000000000000
003FF40000000000000000
007FF10000000000000000
00AFD00000000000000000
00EFA00000000000000000
03FF700000000000000000
07FF400000000000000000
0BFF100000000000000000
0EFD000000000000000000
3FFB000000000000000000
2FF8000000000000000000
0371000000000000000000
ENDCHAR
STARTCHAR q
ENCODING 113
SWIDTH 462 0
DWIDTH 15 0
BBX 17 28 -1 -15
BITMAP
000000574001300000
00004DFFF73FF60000
0006FE40AF8FF10000
004FF4005FEFC00000
00DFB0003FFF800000
06FF500007FF400000
0BFF100007FF000000
0FFC00000CFB000000
2FF900002FF7000090
2FF800009FF30009B0
1FF90003FFE0007E10
0CFE203DDFA005F400
04FFFDF9BF705F6000
004BED60EF34F80000
00000004FE5FA00000
00000008FEFB000000
0000000CFFA0000000
0000001FFB00000000
0000005FF100000000
000000CFC000000000
000005FFA000000000
00000CFF8000000000
00001FFF7000000000
00003FFF7000000000
00002FFF7000000000
00000BFF7000000000
000002DF7000000000
000000172000000000
ENDCHAR
STARTCHAR r
ENCODING 114
SWIDTH 406 0
DWIDTH 13 0
BBX 19 16 -3 -1
BITMAP
0000005B600000000000
000004FFF10000000000
00000CFFF10000000000
00003FFFC00000000000
00002EFFEBC800000000
00000CFFFFFF40000000
00005FD123FF80000000
0000DF4002FF80000640
0006FA0009FE20003F30
000DE2002FF70001D800
005F7000AFC0000BC000
00DD0003FF3000AE2000
05F40009FC000AF40000
0DA0000AFD24CF500000
4E100005FFFFE4000000
120000008EEA20000000
ENDCHAR
STARTCHAR s
ENCODING 115
SWIDTH 351 0
DWIDTH 11 0
BBX 9 16 0 -1
BITMAP
0000011000
00007EE300
0008FFF400
003FFF9000
004FFF4000
003FFF7000
00CB8FC000
08E23FF400
3F400CFB00
870006FF40
000001FFA0
02B300BFC0
1DF9008F80
1FFF22DC00
08FFFFD200
008FE91000
ENDCHAR
STARTCHAR t
ENCODING 116
SWIDTH 301 0
DWIDTH 10 0
BBX 17 24 -3 -1
BITMAP
000000000100000000
00000000CFA0000000
00000005FFB0000000
0000000AFF90000000
0000000EFF70000000
0454459FFFFEDB7300
2FFFFFFFFFFFFFFF60
0379A9EFFB00125610
000000FFF700000000
000003FFF300000000
000007FFD000000000
00000AFF7000000000
00000DFF2000000000
00001FFB0000000000
00003FF50000000000
00006FE0000000B300
00009F80000009B000
0000BF2000006E2000
0000DC000004F60000
0000FB00004F900000
0000FE1005FB000000
0000BFB6AFC1000000
00003FFFFA10000000
0000039A5000000000
ENDCHAR
STARTCHAR u
ENCODING 117
SWIDTH 468 0
DWIDTH 15 0
BBX 18 14 0 -1
BITMAP
000000000010000000
007EB0000CF6000000
05FF60006FF6000000
0CFE1000CFF4000000
2FFA0002FFF1000000
5FF50005FFC0000068
9FF10008FF800003E2
CFB0000AFF20001D70
DF80000AF90000BC00
FF80000CF8000AE200
EFB0009FFB01AF3000
9FFB8CF9FFADE40000
1CFFFF80AFFD300000
005762000540000000
ENDCHAR
STARTCHAR v
ENCODING 118
SWIDTH 427 0
DWIDTH 14 0
BBX 17 14 0 -1
BITMAP
002200000186000000
0AFC00001DFE000000
3FF90000AFFB000000
7FF50002FFF6000020
9FF20005FFD00008A0
AFE00006FF5016CB00
AFD00007FFEEFE6000
AFC0002EE887400000
8FD000BF6000000000
6FF007FA0000000000
3FF54FC10000000000
0EFEFE200000000000
07FFE3000000000000
007A20000000000000
ENDCHAR
STARTCHAR w
ENCODING 119
SWIDTH 646 0
DWIDTH 21 0
BBX 24 14 0 -1
BITMAP
0014200019B1000033000000
03EF7000AFF3000AFD000000
09FF3002FFE0006FFB000000
0DFE0005FFA000BFF8000001
2FFA0007FF4000CFF5000098
5FF60008FD0000AFF1015DA1
7FF20009F70000CFFFEFD600
9FE00009E10002FFBA950000
AFB0000CC00007FD00000000
AF90005FF1000DF600000000
9F9002E9F6007FC000000000
5FE45D90EE46FE3000000000
1DFFFA005FFFE40000000000
029A50000376100000000000
ENDCHAR
STARTCHAR x
ENCODING 120
SWIDTH 399 0
DWIDTH 13 0
BBX 16 14 -2 -1
BITMAP
0019E800001A9100
000AFF1001CFF900
0003FF700BFF9000
0000CFB09FF90000
00007FF8FFA00000
00002FFFFA000000
00000CFFB0000000
00002EFE10000002
0001DFFF2000006D
001CFDDF700007E3
00AFE27FE102BF40
09FE302FFCAFF500
6FE3000AFFFD3000
3B40000079600000
ENDCHAR
STARTCHAR y
ENCODING 121
SWIDTH 406 0
DWIDTH 13 0
BBX 13 27 -1 -14
BITMAP
00021000002300
00CFF20007FF70
00BFF20006FF80
00EFE00007FF50
03FF90000AFE10
08FF40001EFA00
0CFD00006FF500
1FF80001DFF100
4FF40008FFB000
6FF2003FFF7000
6FF202DFFF3000
4FFB7EFAFF0000
0CFFFF87FC0000
018CB50AF80000
0000000EF50000
0000003FF10000
0000007FD00000
000000BFA00000
000001FF700000
000004FF400000
000008FF100000
00000CFD000000
00001FFA000000
00005FF7000000
00009FF4000000
00008FF1000000
00000550000000
ENDCHAR
STARTCHAR z
ENCODING 122
SWIDTH 448 0
DWIDTH 14 0
BBX 18 27 -1 -14
BITMAP
000001579AAA810000
00005FFFFFFFF40000
0000BFFC979FE10000
0000871000AF800000
0000000002FF200000
000000000BF9000000
000000006FE1000000
00000003FF500000A5
0000002DF9000009C0
000003DFFBD9009D20
00001EFFE9FE2BD200
00001FFA10CFEC2000
0000047006EF900000
00000017EFFE000000
000005DFA9FA000000
00009FE50DF6000000
000AFC203FF1000000
009FC100AFB0000000
05FE2002FF60000000
1EF50009FE10000000
7FC0002FF800000000
CF70009FF200000000
FF4004FF9000000000
FF501DFE1000000000
DFD7DFF40000000000
8FFFFF500000000000
08DDA3000000000000
ENDCHAR
STARTCHAR braceleft
ENCODING 123
SWIDTH 243 0
DWIDTH 8 0
BBX 12 31 -1 -4
BITMAP
000000001585
00000006EFF4
0000008FFFE0
000004FFFB60
00000AFE4000
00000DF80000
00000FF40000
00000EF30000
00000DF40000
00000CF50000
00000CF50000
00001FF20000
00006FC00000
0014EF400000
00DFE6000000
01EF70000000
002EF2000000
0009F5000000
0009F5000000
000CF3000000
004FD0000000
00DF60000000
06FC00000000
0DF300000000
5FD000000000
8FD000000000
9FF500000000
7FFF81000000
1DFFF1000000
03EFC0000000
001860000000
ENDCHAR
STARTCHAR bar
ENCODING 124
SWIDTH 253 0
DWIDTH 8 0
BBX 9 25 0 -1
BITMAP
0000004710
000008FD00
00000EF900
00002FF500
00006FF100
00009FB000
0000DF7000
0001FF3000
0005FE0000
0008FA0000
000CF60000
001FF20000
004FE00000
008FA00000
00BF700000
00FF400000
04FF100000
07FE000000
0BFB000000
0EF8000000
3FF5000000
6FF3000000
AFF1000000
DFE0000000
7610000000
ENDCHAR
STARTCHAR braceright
ENCODING 125
SWIDTH 243 0
DWIDTH 8 0
BBX 13 31 -4 -4
BITMAP
00000001720000
00000004FF6000
00000008FFF400
00000007EFFD00
000000002EFF10
0000000007FF10
0000000006FD00
000000000AF700
000000004FE100
00000000CF7000
00000005FD0000
0000000AF60000
0000000DF10000
0000000EF10000
0000000BF50000
00000003FE6000
00000008FF7000
000000AFC51000
000004FE100000
000009F8000000
00000CF5000000
00000DF3000000
00000DF4000000
00000BF5000000
00000BF6000000
00000EF5000000
00008FF2000000
017BFFC0000000
06FFFE30000000
0BFFD300000000
1CA60000000000
ENDCHAR
STARTCHAR asciitilde
ENCODING 126
SWIDTH 329 0
DWIDTH 11 0
BBX 13 5 -1 9
BITMAP
00000000000100
17CEEC73017E10
CFFFFFFFEFFE10
BFA547CFFFD400
13000001330000
ENDCHAR
STARTCHAR uni00A0
ENCODING 160
SWIDTH 280 0
DWIDTH 9 0
BBX 1 1 0 0
BITMAP
00
ENDCHAR
STARTCHAR exclamdown
ENCODING 161
SWIDTH 249 0
DWIDTH 8 0
BBX 10 25 -1 -1
BITMAP
0000001671
000003EFF8
000009FFE3
0000039720
0000000000
0000004700
000009FB00
00001FF700
00005FF400
00009FF100
0000DFC000
0002FF9000
0006FF5000
000AFF2000
000EFE0000
003FFA0000
007FF70000
00BFF40000
01FFF10000
04FFC00000
09FF800000
0DFF500000
2FFF200000
6FFE000000
5B92000000
ENDCHAR
STARTCHAR cent
ENCODING 162
SWIDTH 322 0
DWIDTH 10 0
BBX 12 24 -1 -1
BITMAP
000000008F10
00000000DD00
00000002F900
0000008EFF90
00001CFA37F5
0001CF9004F9
000AFB006FF9
004FF201FFF8
00CF9003FFF3
04FF2000DF80
09FB00001100
0DF700000000
1FF300000000
2FF000000000
2FE000000000
1FF000000000
0DF300006700
09F90006D100
02EF97BE3000
005EFFB20000
0007F6000000
000BF1000000
001FB0000000
000410000000
ENDCHAR
STARTCHAR sterling
ENCODING 163
SWIDTH 318 0
DWIDTH 10 0
BBX 14 21 -2 1
BITMAP
000000016AB810
0000002DFDBFB0
000000CF6008F2
000006F90009F4
00000BF2001EF2
00001FD039EFB0
00004FA01EFC20
00008F70013000
0000BF40000000
0000FF10000000
01AAFE77820000
02EFFFFFD10000
000CF866200000
001FF100000000
006FA000000000
00BF5000000000
02FC0000000000
0AF40345530000
6FDBFFFFFF2000
6FFEDBA9AC0000
03100000000000
ENDCHAR
STARTCHAR currency
ENCODING 164
SWIDTH 347 0
DWIDTH 11 0
BBX 13 11 -1 6
BITMAP
002E6000002B30
002EE25854EE30
0007FFFFFFE300
0000DF61BF2000
0003F7007F0000
0008F000BC0000
000BD004F70000
003EF78EF30000
04EFEFFCFC0000
2FE40320AF7000
1A3000001D6000
ENDCHAR
STARTCHAR yen
ENCODING 165
SWIDTH 326 0
DWIDTH 10 0
BBX 13 20 0 2
BITMAP
00001000000000
008E4000005D80
00CF400002FF20
00BF600009F800
008F70002FD100
005F9000BF4000
002FD006FA0000
000EF14FD10000
0009F7EE300000
0003FFF4000000
0000EF60000000
0002FF32000000
0AEFFFFF400000
298CFA88100000
013DF851000000
AFFFFFF7000000
558FB461000000
009F7000000000
00EF4000000000
02FB1000000000
ENDCHAR
STARTCHAR brokenbar
ENCODING 166
SWIDTH 253 0
DWIDTH 8 0
BBX 9 25 0 -1
BITMAP
0000004710
000008FD00
00000EF900
00002FF500
00006FF100
00009FC000
0000DF8000
0002FF4000
0005FE0000
0009FB0000
000AD50000
0000000000
0000000000
0015100000
00BF700000
00EF400000
03FF100000
07FE000000
0BFB000000
0EF8000000
3FF5000000
6FF3000000
AFF1000000
DFE0000000
7610000000
ENDCHAR
STARTCHAR section
ENCODING 167
SWIDTH 297 0
DWIDTH 10 0
BBX 13 25 -1 -1
BITMAP
00000027984000
000008FA36F600
0000AF9000FE00
0005FD1001FF10
000AF80007FD00
0009F8001CC400
0004FE10000000
00007FB0000000
000007FB100000
00017BFFB00000
005EF84AF60000
03FF4004FC0000
09FA0002FE0000
0BF70005FC0000
09FA002DF40000
01EF78EE500000
002DFE71000000
0001BF70000000
00001BF7000000
178301FF300000
9FB000DF600000
EF3000FF400000
DF2007FC000000
4EA38FD2000000
028AA600000000
ENDCHAR
STARTCHAR dieresis
ENCODING 168
SWIDTH 567 0
DWIDTH 18 0
BBX 10 3 6 18
BITMAP
08EE208ED1
2FFD14FFE1
1871007610
ENDCHAR
STARTCHAR copyright
ENCODING 169
SWIDTH 456 0
DWIDTH 15 0
BBX 16 17 0 7
BITMAP
0000000134300000
000004BFFEFD6000
00008FD61018FA00
0009F90014206F70
007FA006EFE30BE1
02FD107FC3D905F6
09F603FD14FB02F9
0EE10BF3039301FA
3FB02FB0000002FA
5F905F60000005F8
5F805F50006009F4
3F903F8005801FD0
0ED00CFACA009F60
08F601AC7006FA00
01DE5000008FB100
001BFC868DF70000
00005ACDB7200000
ENDCHAR
STARTCHAR ordfeminine
ENCODING 170
SWIDTH 373 0
DWIDTH 12 0
BBX 16 17 -2 -1
BITMAP
0000000451000000
000002CFFD000000
00003EE7FE100000
0002EF31BEC00000
000BF7003FC00000
005FE0005F900000
00CF70009F600000
02FF3000DF200021
06FF1005FE0002D1
07FF104EFC002D60
06FFA9F9CD04E800
02FFFF809FEF6000
004A820018830000
0000000000000000
08ABCCDDCCB30000
7FFFFFFFFFF20000
AB97654444300000
ENDCHAR
STARTCHAR guillemotleft
ENCODING 171
SWIDTH 346 0
DWIDTH 11 0
BBX 13 14 -2 -1
BITMAP
00000026000440
000005FA00AF40
00004FC109F800
0003EE208FB000
002EF506FD1000
01DF805FF30000
1CFB03FF600000
1EF906FF300000
06FE10CF900000
00CF703FE10000
003FD00AF60000
0008F501ED0000
0001DC007F4000
00003600063000
ENDCHAR
STARTCHAR logicalnot
ENCODING 172
SWIDTH 512 0
DWIDTH 16 0
BBX 17 8 -1 5
BITMAP
0179ABCCCCCBBA9830
0BFFFFFFFFFFFFFFB0
2ECA9776555566BF90
00000000000000BF60
00000000000001FF20
00000000000005FC00
0000000000000BF600
0000000000001B7000
ENDCHAR
STARTCHAR sfthyphen
ENCODING 173
SWIDTH 353 0
DWIDTH 11 0
BBX 12 4 -1 8
BITMAP
000122222210
0AFFFFFFFFFB
4FFFFFFFEEE7
474310000000
ENDCHAR
STARTCHAR registered
ENCODING 174
SWIDTH 456 0
DWIDTH 15 0
BBX 16 17 0 7
BITMAP
0000000134300000
000004BFFEFD6000
00008FD61018FA00
0009F90256206F70
007FA1AFBBF40BE1
02FD14EF30E905F6
09F6007E00E902F9
0EE100AB07F301FA
3FB004EC8F7002FA
5F9007FFF60005F8
5F8007F1D80009F4
3F900BC07E001FD0
0ED04F802FA39F60
08F626100896FA00
01DE5000008FB100
001BFC868DF70000
00005ACDB7200000
ENDCHAR
STARTCHAR macron
ENCODING 175
SWIDTH 567 0
DWIDTH 18 0
BBX 8 3 7 18
BITMAP
4BDDEED9
BFFFFFF9
55433331
ENDCHAR
STARTCHAR degree
ENCODING 176
SWIDTH 144 0
DWIDTH 5 0
BBX 6 5 1 17
BITMAP
004620
08ECE1
1F53F3
0DDDA0
016500
ENDCHAR
STARTCHAR twosuperior
ENCODING 178
SWIDTH 268 0
DWIDTH 9 0
BBX 10 16 0 8
BITMAP
000006AB70
0002CE9EF6
000DF408FA
006FD008FA
006FD00BF8
0004202FF2
0000009F80
000005FC00
00003EE200
0004EE3000
005FE40000
05FE300000
2FE5565100
8FFFFFFE00
3FEBABED00
0210000500
ENDCHAR
STARTCHAR threesuperior
ENCODING 179
SWIDTH 262 0
DWIDTH 8 0
BBX 10 16 0 8
BITMAP
000049A930
0009FFCFF3
006FE306F9
00BF8006FA
00AFC20BF6
0016306FD1
000006FE30
0003BFF400
0006FDFE10
0001208F70
0000007F80
058100BF50
5FF004FE00
2FFA7EF500
08FFFE5000
0025510000
ENDCHAR
STARTCHAR acute
ENCODING 180
SWIDTH 567 0
DWIDTH 18 0
BBX 6 5 8 17
BITMAP
0001A4
004EFB
09FFE4
AFE810
351000
ENDCHAR
STARTCHAR mu
ENCODING 181
SWIDTH 453 0
DWIDTH 15 0
BBX 19 19 -4 -7
BITMAP
00000155000176000000
00001DF80008FC000000
00006FF2001EFB000000
0000CFC0005FF9000000
0001FF70009FF6000000
0005FF2000CFF1000000
0009FD0000DFA0000660
000DF90000EF30001D20
002FF90002FF2000A900
006FFC002CFF5008E100
009FFFDBEE7FE8CF4000
00DFDEFFB20BFFE50000
02FF5021000044000000
06FF2000000000000000
0AFD0000000000000000
0EF80000000000000000
5FF30000000000000000
BF800000000000000000
31000000000000000000
ENDCHAR
STARTCHAR paragraph
ENCODING 182
SWIDTH 411 0
DWIDTH 13 0
BBX 15 25 1 -1
BITMAP
0000000037003300
00000123FE28F620
0007CFFFFFFFFFD0
02CFFFFFFFFFFC30
1DFFFFFFF46FA000
7FFFFFFFD07F6000
CFFFFFFFA0AF3000
FFFFFFFF60EE0000
FFFFFFFF32FB0000
CFFFFFFE05F70000
5FFFFFFA09F40000
06FFFFF70CF10000
0027BFF30ED00000
00000EE03F900000
00003FB06F600000
00007F809F300000
0000BF40CE000000
0000EF10FB000000
0003FC03F8000000
0006F907F5000000
000BF50BF1000000
001EF21EC0000000
005FD05F80000000
00BFA0BE20000000
0185115100000000
ENDCHAR
STARTCHAR periodcentered
ENCODING 183
SWIDTH 168 0
DWIDTH 5 0
BBX 5 4 0 9
BITMAP
003410
2CFF80
9FFF40
4BA300
ENDCHAR
STARTCHAR cedilla
ENCODING 184
SWIDTH 567 0
DWIDTH 18 0
BBX 6 8 8 -5
BITMAP
05E800
0DE200
4FE971
39AFFA
0008FB
004EE4
6DFA20
341000
ENDCHAR
STARTCHAR onesuperior
ENCODING 185
SWIDTH 150 0
DWIDTH 5 0
BBX 5 16 1 8
BITMAP
000550
009FF0
04FFC0
00AF80
00BF50
00EF10
02FC00
05F900
08F500
0CF100
1FC000
5F9000
AF7000
EF5000
EF7000
120000
ENDCHAR
STARTCHAR ordmasculine
ENCODING 186
SWIDTH 319 0
DWIDTH 10 0
BBX 15 16 -2 -1
BITMAP
00003BED60000000
0003FFBAF8000000
000CF900CF100510
006FF5009F507C00
00CFF7008F7AD100
01FEDE52AFFB1000
03FB3EFFFF700000
03FA016AFC000000
02FB000CF6000000
00EE207FC0000000
008FEEFD20000000
0008CC8100000000
0000000000000000
29BCDDDCB4000000
AFFFFFFFF4000000
CA86544440000000
ENDCHAR
STARTCHAR guillemotright
ENCODING 187
SWIDTH 346 0
DWIDTH 11 0
BBX 13 14 -3 -1
BITMAP
00053002500000
000CE104F70000
0005F800DE2000
0000EF206FA000
00008FB01EF500
00002FF508FD10
00000AFD01FF80
00000CFC03FF60
00009FD11DF800
0006FD20BFA000
003EE308FB0000
01DE305FC10000
0AE402EC100000
16200451000000
ENDCHAR
STARTCHAR onequarter
ENCODING 188
SWIDTH 579 0
DWIDTH 19 0
BBX 19 25 -1 -1
BITMAP
00000460000000001650
00007FF100000005FE20
0003FFE00000002EF500
00009FA0000000CF9000
00009F60000007FD1000
0000CF2000003FF30000
0000FE000000DF600000
0003FA000008FB000000
0007F600004FE1000000
000AF30001DF40001400
000EE0000AF9000BFF20
004FB0005FD1008FFE00
008F8001EF3005FDFB00
00CF700AF8004FE6F700
00CF806FD002EF48F400
001202EF302DF50CF100
00000BF901DF703FD000
00006FD106FFEFFFF900
0002EF5001DEB9DFE800
000CFA00001000CF5200
008FE200000001FF2000
03FF7000000005FF0000
1DFD0000000008FD0000
8FF4000000000AFD0000
76200000000003720000
ENDCHAR
STARTCHAR onehalf
ENCODING 189
SWIDTH 603 0
DWIDTH 19 0
BBX 20 25 -1 -1
BITMAP
00000370000000001560
00005FF400000003EF40
0001EFF10000001DF800
00006FC0000000AFC000
00007F90000005FE2000
0000AF5000001EF50000
0000DF100000BF900000
0001FC000006FD100000
0004F900002EF3000000
0008F50000CF70026620
000CF10007FB01BFDFE2
002FD0003FE20CF50CF7
006FB000CF607FB00BF8
00AF9008FA00AF900DF6
00AFA03FE10028403FF1
000201DF60000000BF80
000009FB00000005FC00
00004FF20000002EE300
0001DF70000003EF4000
0009FD0000004EF50000
005FF4000005FE400000
01EFA000003EE3120000
0AFE100000AFDEFFF900
6FF70000007FFFFFFB00
56300000001730015500
ENDCHAR
STARTCHAR threequarters
ENCODING 190
SWIDTH 669 0
DWIDTH 21 0
BBX 21 25 0 -1
BITMAP
000049A930000000002640
0009FFCFF300000007FE10
006FE306F90000004FF400
00BF8006FA000001DF8000
00AFC20BF6000009FC0000
0016306FD100004FE20000
000006FE300001EF500000
0003BFF400000AF9000000
0006FDFE10005FD1000000
0001208F7002EF30002400
0000007F800BF7001CFF10
058100BF506FC000AFFD00
5FF004FE02EE2007FDF900
2FFA7EF50CF6005FD6F500
08FFFE507FB003FE29F200
00255103FF203EF40DD000
0000000CF702EF614FB000
0000008FC007FFEFFFF800
000003FF3002EEB9DFF600
00001DF900001000EF5100
00009FE100000003FF0000
0004FF5000000006FD0000
001DFB000000000AFC0000
009FF3000000000BFB0000
0076100000000003720000
ENDCHAR
STARTCHAR questiondown
ENCODING 191
SWIDTH 413 0
DWIDTH 13 0
BBX 16 25 -2 -1
BITMAP
0000000000005992
000000000007FFF9
00000000000CFFF4
0000000000027730
0000000000000000
000000000002BE00
00000000001DFB00
00000000005FF700
00000000009FF300
0000000000DFE000
0000000002FFB000
00000016CFFF6000
000005EFFEB60000
0000AFFB50000000
001BFE5000000000
00BFF40000000000
05FF800000000000
0DFE100000000000
3FF80000009C7000
7FF40000008FF400
8FF2000000AFF500
7FF5000004FFE100
2FFD40027EFF5000
05EFFFFFFFC30000
0028CEEC83000000
ENDCHAR
STARTCHAR Agrave
ENCODING 192
SWIDTH 552 0
DWIDTH 18 0
BBX 21 38 -4 -8
BITMAP
0000000000000009B30000
000000000000003FFF7000
0000000000000004BFF900
000000000000000004CF40
0000000000000000000400
0000000000000000000000
0000000000000001675000
000000000000007EFFF900
0000000000000BFE79FD00
000000000000AFC204FE00
000000000007FD1005FC00
00000000003FF40007FA00
0000000000CFA0000BF700
0000000005FF30000EF500
000000000DFB00002FF300
000000004FF500006FF000
00000000AFE000009FD000
00000001FF900000CFA000
00000007FF300001FF8000
0000000CFD000003FF5000
0000002FF9000006FF3000
0000008FF4000009FF0000
000000DFE344432CFD0000
000016FFFFFFFFFFFEA700
004AFFFFFFFFFFFFFFE200
08FDBFFF4211139FFD3000
01104FFD0000008FF40000
0000AFF9000000AFF20000
0001EFF5000000DFF00000
0006FFF1000000FFD00000
000BFFC0000002FFC00000
002FFF80000004FFC00000
008FFF30000005FFC00000
01EFFC00000004FFE00000
09FFE300000004FFF20000
2A851000000002FFF80000
00000000000000EFD80000
0000000000000043000000
ENDCHAR
STARTCHAR Aacute
ENCODING 193
SWIDTH 552 0
DWIDTH 18 0
BBX 21 38 -4 -8
BITMAP
0000000000000000005B00
000000000000000019FF40
0000000000000003DFFA10
000000000000002FFC4000
0000000000000005300000
0000000000000000000000
0000000000000001675000
000000000000007EFFF900
0000000000000BFE79FD00
000000000000AFC204FE00
000000000007FD1005FC00
00000000003FF40007FA00
0000000000CFA0000BF700
0000000005FF30000EF500
000000000DFB00002FF300
000000004FF500006FF000
00000000AFE000009FD000
00000001FF900000CFA000
00000007FF300001FF8000
0000000CFD000003FF5000
0000002FF9000006FF3000
0000008FF4000009FF0000
000000DFE344432CFD0000
000016FFFFFFFFFFFEA700
004AFFFFFFFFFFFFFFE200
08FDBFFF4211139FFD3000
01104FFD0000008FF40000
0000AFF9000000AFF20000
0001EFF5000000DFF00000
0006FFF1000000FFD00000
000BFFC0000002FFC00000
002FFF80000004FFC00000
008FFF30000005FFC00000
01EFFC00000004FFE00000
09FFE300000004FFF20000
2A851000000002FFF80000
00000000000000EFD80000
0000000000000043000000
ENDCHAR
STARTCHAR Acircumflex
ENCODING 194
SWIDTH 552 0
DWIDTH 18 0
BBX 22 37 -4 -8
BITMAP
00000000000000002BEC00
0000000000000004EEEF70
000000000000007FD36FE2
00000000000005A81007B8
0000000000000000000000
0000000000000001675000
000000000000007EFFF900
0000000000000BFE79FD00
000000000000AFC204FE00
000000000007FD1005FC00
00000000003FF40007FA00
0000000000CFA0000BF700
0000000005FF30000EF500
000000000DFB00002FF300
000000004FF500006FF000
00000000AFE000009FD000
00000001FF900000CFA000
00000007FF300001FF8000
0000000CFD000003FF5000
0000002FF9000006FF3000
0000008FF4000009FF0000
000000DFE344432CFD0000
000016FFFFFFFFFFFEA700
004AFFFFFFFFFFFFFFE200
08FDBFFF4211139FFD3000
01104FFD0000008FF40000
0000AFF9000000AFF20000
0001EFF5000000DFF00000
0006FFF1000000FFD00000
000BFFC0000002FFC00000
002FFF80000004FFC00000
008FFF30000005FFC00000
01EFFC00000004FFE00000
09FFE300000004FFF20000
2A851000000002FFF80000
00000000000000EFD80000
0000000000000043000000
ENDCHAR
STARTCHAR Atilde
ENCODING 195
SWIDTH 552 0
DWIDTH 18 0
BBX 23 37 -4 -8
BITMAP
000000000000000010000020
00000000000003BFFEA549D0
0000000000000CFEBEFFFF90
000000000000046000377400
000000000000000000000000
000000000000000167500000
000000000000007EFFF90000
0000000000000BFE79FD0000
000000000000AFC204FE0000
000000000007FD1005FC0000
00000000003FF40007FA0000
0000000000CFA0000BF70000
0000000005FF30000EF50000
000000000DFB00002FF30000
000000004FF500006FF00000
00000000AFE000009FD00000
00000001FF900000CFA00000
00000007FF300001FF800000
0000000CFD000003FF500000
0000002FF9000006FF300000
0000008FF4000009FF000000
000000DFE344432CFD000000
000016FFFFFFFFFFFEA70000
004AFFFFFFFFFFFFFFE20000
08FDBFFF4211139FFD300000
01104FFD0000008FF4000000
0000AFF9000000AFF2000000
0001EFF5000000DFF0000000
0006FFF1000000FFD0000000
000BFFC0000002FFC0000000
002FFF80000004FFC0000000
008FFF30000005FFC0000000
01EFFC00000004FFE0000000
09FFE300000004FFF2000000
2A851000000002FFF8000000
00000000000000EFD8000000
000000000000004300000000
ENDCHAR
STARTCHAR Adieresis
ENCODING 196
SWIDTH 552 0
DWIDTH 18 0
BBX 23 36 -4 -8
BITMAP
000000000000002CFA03CE80
00000000000000AFF70BFF80
000000000000004840037400
000000000000000000000000
000000000000000167500000
000000000000007EFFF90000
0000000000000BFE79FD0000
000000000000AFC204FE0000
000000000007FD1005FC0000
00000000003FF40007FA0000
0000000000CFA0000BF70000
0000000005FF30000EF50000
000000000DFB00002FF30000
000000004FF500006FF00000
00000000AFE000009FD00000
00000001FF900000CFA00000
00000007FF300001FF800000
0000000CFD000003FF500000
0000002FF9000006FF300000
0000008FF4000009FF000000
000000DFE344432CFD000000
000016FFFFFFFFFFFEA70000
004AFFFFFFFFFFFFFFE20000
08FDBFFF4211139FFD300000
01104FFD0000008FF4000000
0000AFF9000000AFF2000000
0001EFF5000000DFF0000000
0006FFF1000000FFD0000000
000BFFC0000002FFC0000000
002FFF80000004FFC0000000
008FFF30000005FFC0000000
01EFFC00000004FFE0000000
09FFE300000004FFF2000000
2A851000000002FFF8000000
00000000000000EFD8000000
000000000000004300000000
ENDCHAR
STARTCHAR Aring
ENCODING 197
SWIDTH 552 0
DWIDTH 18 0
BBX 20 35 -4 -8
BITMAP
00000000000000007EE6
0000000000000004F4AC
0000000000000005F5C9
0000000000000002EFD1
000000000000007FFFF9
0000000000000AFE79FD
000000000000AFC204FE
000000000007FD1005FC
00000000003FF40007FA
0000000000CFA0000BF7
0000000005FF30000EF5
000000000DFB00002FF3
000000004FF500006FF0
00000000AFE000009FD0
00000001FF900000CFA0
00000007FF300001FF80
0000000CFD000003FF50
0000002FF9000006FF30
0000008FF4000009FF00
000000DFE344432CFD00
000016FFFFFFFFFFFEA7
004AFFFFFFFFFFFFFFE2
08FDBFFF4211139FFD30
01104FFD0000008FF400
0000AFF9000000AFF200
0001EFF5000000DFF000
0006FFF1000000FFD000
000BFFC0000002FFC000
002FFF80000004FFC000
008FFF30000005FFC000
01EFFC00000004FFE000
09FFE300000004FFF200
2A851000000002FFF800
00000000000000EFD800
00000000000000430000
ENDCHAR
STARTCHAR AE
ENCODING 198
SWIDTH 869 0
DWIDTH 28 0
BBX 33 32 -4 -8
BITMAP
0000000000000001675000000468740000
000000000000007EFFF90019EFFFFFB100
0000000000000BFE79FD06EFE8201BFB00
000000000000AFC204FE9FFC200005FF20
000000000007FD1005FFFFC1000005FF40
00000000003FF40007FFFF20000007FF30
0000000000CFA0000BFFFA0000000DFE00
0000000005FF30000EFFF40000008FF900
000000000DFB00002FFFF1000007FFF200
000000004FF500006FFFF000002CFF6000
00000000AFE000009FFFF0000000220000
00000001FF900000CFFFF3000000000000
00000007FF300001FFFFFA000000000000
0000000CFD000003FF7DFF500000000000
0000002FF9000006FF32BFFABA30000000
0000008FF4000009FF16DFFFFF50000000
000000DFE344432CFEDFE737A700000000
000016FFFFFFFFFFFFFB10000000000000
004AFFFFFFFFFFFFFFC100000000000000
08FDBFFF4211139FFF3000000000000000
01104FFD0000008FFC0000000000000000
0000AFF9000000AFF80000000000490000
0001EFF5000000DFF70000000000C60000
0006FFF1000000FFF90000000007F10000
000BFFC0000002FFFC000000003F900000
002FFF80000004FFFF40000003EE100000
008FFF30000005FFFFE400005EF4000000
01EFFC00000004FFFFFFB88CFF50000000
09FFE300000004FFFEFFFFFFD400000000
2A851000000002FFF959CCA50000000000
00000000000000EFD80000000000000000
0000000000000043000000000000000000
ENDCHAR
STARTCHAR Ccedilla
ENCODING 199
SWIDTH 548 0
DWIDTH 18 0
BBX 18 37 0 -13
BITMAP
000000000026896100
000000002BFFFFFD30
00000006FFD512CFD0
0000008FFC10004FF5
000006FFD100003FF8
00003FFF3000005FFA
0000CFF70000008FFA
0006FFD0000000DFF8
001EFF70000004FFF5
006FFE1000003EFFE0
00DFF80000004FFF70
03FFF300000005A600
08FFD0000000000000
0DFF80000000000000
2FFF50000000000000
6FFF20000000000000
9FFD00000000000000
BFFB00000000000000
DFF900000000000000
EFF800000000000000
FFF600000000000000
FFF600000000000000
DFF600000000031000
AFF8000000002E4000
6FFB00000001CC0000
1FFF3000000BF30000
08FFC10003DF700000
01CFFE98BFF8000000
001CFFFFFE60000000
00005FFB7100000000
00004FB00000000000
0000AFA62000000000
00008BEFE200000000
0000001FF500000000
0000007FC100000000
00018DE91000000000
000164100000000000
ENDCHAR
STARTCHAR Egrave
ENCODING 200
SWIDTH 523 0
DWIDTH 17 0
BBX 19 36 -1 -6
BITMAP
000000000009B4000000
00000000002FFF700000
000000000003BFFA0000
00000000000004CF5000
00000000000000040000
00000000000000000000
00000000000478740000
0000000029EFFFFFB100
00000007FFE7201CF900
000000AFFB100006FF10
000009FFB0000006FF30
00005FFE20000008FF20
0000DFF80000000EFD00
0004FFF20000009FF800
0008FFE0000008FFE200
0009FFD000003DFF5000
0009FFE0000000220000
0005FFF2000000000000
0000CFF8000000000000
00002EFF400000000000
000002CFEABA20000000
000007DFFFFF40000000
0004DFD737A600000000
006FFB10000000000000
04FFC000000000000000
1DFF2000000000000000
6FFB0000000000000000
BFF70000000000680000
DFF60000000001D50000
EFF80000000008E10000
DFFB000000004F800000
9FFF30000004ED100000
2EFFD300007EF3000000
05FFFFB89DFF40000000
004EFFFFFFD300000000
00006ACBA50000000000
ENDCHAR
STARTCHAR Eacute
ENCODING 201
SWIDTH 523 0
DWIDTH 17 0
BBX 19 36 -1 -6
BITMAP
00000000000000087000
00000000000002CFF000
0000000000006EFF7000
000000000007FF920000
00000000000151000000
00000000000000000000
00000000000478740000
0000000029EFFFFFB100
00000007FFE7201CF900
000000AFFB100006FF10
000009FFB0000006FF30
00005FFE20000008FF20
0000DFF80000000EFD00
0004FFF20000009FF800
0008FFE0000008FFE200
0009FFD000003DFF5000
0009FFE0000000220000
0005FFF2000000000000
0000CFF8000000000000
00002EFF400000000000
000002CFEABA20000000
000007DFFFFF40000000
0004DFD737A600000000
006FFB10000000000000
04FFC000000000000000
1DFF2000000000000000
6FFB0000000000000000
BFF70000000000680000
DFF60000000001D50000
EFF80000000008E10000
DFFB000000004F800000
9FFF30000004ED100000
2EFFD300007EF3000000
05FFFFB89DFF40000000
004EFFFFFFD300000000
00006ACBA50000000000
ENDCHAR
STARTCHAR Ecircumflex
ENCODING 202
SWIDTH 523 0
DWIDTH 17 0
BBX 19 35 -1 -6
BITMAP
00000000000005DE8000
0000000000008FDFF200
00000000001BFA1AFB00
00000000007A60019B50
00000000000000000000
00000000000478740000
0000000029EFFFFFB100
00000007FFE7201CF900
000000AFFB100006FF10
000009FFB0000006FF30
00005FFE20000008FF20
0000DFF80000000EFD00
0004FFF20000009FF800
0008FFE0000008FFE200
0009FFD000003DFF5000
0009FFE0000000220000
0005FFF2000000000000
0000CFF8000000000000
00002EFF400000000000
000002CFEABA20000000
000007DFFFFF40000000
0004DFD737A600000000
006FFB10000000000000
04FFC000000000000000
1DFF2000000000000000
6FFB0000000000000000
BFF70000000000680000
DFF60000000001D50000
EFF80000000008E10000
DFFB000000004F800000
9FFF30000004ED100000
2EFFD300007EF3000000
05FFFFB89DFF40000000
004EFFFFFFD300000000
00006ACBA50000000000
ENDCHAR
STARTCHAR Edieresis
ENCODING 203
SWIDTH 523 0
DWIDTH 17 0
BBX 19 34 -1 -6
BITMAP
00000000002CFA02BE80
00000000009FF80AFF80
00000000004850037400
00000000000000000000
00000000000478740000
0000000029EFFFFFB100
00000007FFE7201CF900
000000AFFB100006FF10
000009FFB0000006FF30
00005FFE20000008FF20
0000DFF80000000EFD00
0004FFF20000009FF800
0008FFE0000008FFE200
0009FFD000003DFF5000
0009FFE0000000220000
0005FFF2000000000000
0000CFF8000000000000
00002EFF400000000000
000002CFEABA20000000
000007DFFFFF40000000
0004DFD737A600000000
006FFB10000000000000
04FFC000000000000000
1DFF2000000000000000
6FFB0000000000000000
BFF70000000000680000
DFF60000000001D50000
EFF80000000008E10000
DFFB000000004F800000
9FFF30000004ED100000
2EFFD300007EF3000000
05FFFFB89DFF40000000
004EFFFFFFD300000000
00006ACBA50000000000
ENDCHAR
STARTCHAR Igrave
ENCODING 204
SWIDTH 537 0
DWIDTH 17 0
BBX 20 36 -3 -6
BITMAP
00000000000002C91000
00000000000007FFE400
000000000000006DFF50
00000000000000007EE0
00000000000000000140
00000000000000000000
00000000000000046400
00000000000005DFFF40
0000000000009FFABF80
000000000008FFA0AF90
00000000004FFD10BF80
0000000000CFF500EF80
0000000003FFE001FF70
0000000007FFA004FF50
0000000009FF6008FF30
000000000AFF300BFF10
000000000AFF100FFD00
0000000008FF004FFA00
0000000006FF008FF600
0000000002FF20CFF300
0000000000CF51FFE000
00000000005D15FFA000
00000000000009FF6000
0000000025789EFFBA96
000005AEFFFFFFFEDCC7
0006DFFFEA759FF60000
00AFFFA40000BFE10000
08FFD3000001FF900000
2FFF30000006FF400000
5FFE0000000BFC000000
5FFE0000002FF5000000
1EFF4000009FB0000000
07FFD10003FF30000000
00AFFD301DF600000000
0008FFFDEF7000000000
000028BCA40000000000
ENDCHAR
STARTCHAR Iacute
ENCODING 205
SWIDTH 537 0
DWIDTH 17 0
BBX 20 36 -3 -6
BITMAP
00000000000000000097
00000000000000003CFE
0000000000000007FFF6
000000000000008FE920
00000000000000251000
00000000000000000000
00000000000000046400
00000000000005DFFF40
0000000000009FFABF80
000000000008FFA0AF90
00000000004FFD10BF80
0000000000CFF500EF80
0000000003FFE001FF70
0000000007FFA004FF50
0000000009FF6008FF30
000000000AFF300BFF10
000000000AFF100FFD00
0000000008FF004FFA00
0000000006FF008FF600
0000000002FF20CFF300
0000000000CF51FFE000
00000000005D15FFA000
00000000000009FF6000
0000000025789EFFBA96
000005AEFFFFFFFEDCC7
0006DFFFEA759FF60000
00AFFFA40000BFE10000
08FFD3000001FF900000
2FFF30000006FF400000
5FFE0000000BFC000000
5FFE0000002FF5000000
1EFF4000009FB0000000
07FFD10003FF30000000
00AFFD301DF600000000
0008FFFDEF7000000000
000028BCA40000000000
ENDCHAR
STARTCHAR Icircumflex
ENCODING 206
SWIDTH 537 0
DWIDTH 17 0
BBX 22 35 -3 -6
BITMAP
00000000000000002BEC00
0000000000000004EEEF60
000000000000007FD26FE1
00000000000005A81007B8
0000000000000000000000
0000000000000004640000
00000000000005DFFF4000
0000000000009FFABF8000
000000000008FFA0AF9000
00000000004FFD10BF8000
0000000000CFF500EF8000
0000000003FFE001FF7000
0000000007FFA004FF5000
0000000009FF6008FF3000
000000000AFF300BFF1000
000000000AFF100FFD0000
0000000008FF004FFA0000
0000000006FF008FF60000
0000000002FF20CFF30000
0000000000CF51FFE00000
00000000005D15FFA00000
00000000000009FF600000
0000000025789EFFBA9600
000005AEFFFFFFFEDCC700
0006DFFFEA759FF6000000
00AFFFA40000BFE1000000
08FFD3000001FF90000000
2FFF30000006FF40000000
5FFE0000000BFC00000000
5FFE0000002FF500000000
1EFF4000009FB000000000
07FFD10003FF3000000000
00AFFD301DF60000000000
0008FFFDEF700000000000
000028BCA4000000000000
ENDCHAR
STARTCHAR Idieresis
ENCODING 207
SWIDTH 537 0
DWIDTH 17 0
BBX 22 34 -3 -6
BITMAP
00000000000002CFA03CE8
0000000000000AFF70BFF8
0000000000000484003740
0000000000000000000000
0000000000000004640000
00000000000005DFFF4000
0000000000009FFABF8000
000000000008FFA0AF9000
00000000004FFD10BF8000
0000000000CFF500EF8000
0000000003FFE001FF7000
0000000007FFA004FF5000
0000000009FF6008FF3000
000000000AFF300BFF1000
000000000AFF100FFD0000
0000000008FF004FFA0000
0000000006FF008FF60000
0000000002FF20CFF30000
0000000000CF51FFE00000
00000000005D15FFA00000
00000000000009FF600000
0000000025789EFFBA9600
000005AEFFFFFFFEDCC700
0006DFFFEA759FF6000000
00AFFFA40000BFE1000000
08FFD3000001FF90000000
2FFF30000006FF40000000
5FFE0000000BFC00000000
5FFE0000002FF500000000
1EFF4000009FB000000000
07FFD10003FF3000000000
00AFFD301DF60000000000
0008FFFDEF700000000000
000028BCA4000000000000
ENDCHAR
STARTCHAR Eth
ENCODING 208
SWIDTH 632 0
DWIDTH 20 0
BBX 21 30 -1 -6
BITMAP
0000000046864100000000
0000018EFFFFFE92000000
00003EFFFFEEFFFE500000
00008FFB510017EFF60000
00007D400000002EFE2000
0000210395000005FFB000
000000AFF7000000DFF200
000000FFF40000008FF800
000002FFF20000005FFB00
000004FFE00000003FFE00
000006FFA00000003FFF10
000009FF700000003FFF10
00000CFF400000004FFF10
00123EFF421000006FFF00
2DFFFFFFFFF700008FFD00
AFFFFFFEEED20000BFFA00
76429FF500000000EFF600
0000CFF100000004FFF100
0001FFC000000009FFA000
0004FF800000001FFF4000
0008FF400000008FFC0000
000CFE00000001EFF30000
001FFA0000000AFF900000
006FF60000005FFD100000
00BFF2000004FFE2000000
01FFC000004EFE40000000
08FF800008FFE300000000
1FFFC447EFFB2000000000
05EFFFFFFD600000000000
0016BCB940000000000000
ENDCHAR
STARTCHAR Ntilde
ENCODING 209
SWIDTH 541 0
DWIDTH 17 0
BBX 23 34 -2 -6
BITMAP
000000000000100000200000
0000000002BFFEA548E00000
000000000BFEBDFFFFA00000
000000000470003675000000
000000000000000000488100
0000004CF600000009FFFC00
000000CFF90000006FFEDF20
000001FFFB000001EFE25F30
000004FFFC000005FF707F20
000008FFFD00000AFF10DE00
00000BFEFE00000EFB05F900
00000EF8FF00003FF72EE200
00003FF4FF10006FF7EF5000
00006FC1FF2068BFFFE50000
0000AF90FF2019FFFA200000
0000EF50EF2000EFA0000000
0002FF20CF3001FF70000000
0006FE00CF3003FF40000000
000AFB00BF4006FF20000000
000DF800BF4008FE00000000
002FF500AF500BFC00000000
006FF200AF600DF900000000
00AFF0009F701FF600000000
00DFC0008F904FF400000000
02FFA0007FA08FF100000000
05FF80006FC0BFD000000000
09FF60004FE0EF9000000000
0CFF40002FF5FF6000000000
0FFF40000FFCFF2000000000
2FFF40000BFFFD0000000000
4FFF400008FFFA0000000000
4FFF600004FFF60000000000
1FFF800000DFE10000000000
059720000038300000000000
ENDCHAR
STARTCHAR Ograve
ENCODING 210
SWIDTH 567 0
DWIDTH 18 0
BBX 17 37 0 -7
BITMAP
00000000009B400000
0000000002FFF70000
00000000003BFFA000
0000000000004CF500
000000000000004000
000000000000000000
0000000029D9430000
00000005EFFFFF8000
0000005FFFF99FF300
000003FFDC500EFA00
00001DFF32000AFE00
00008FF7000008FF20
0001EFD0000006FF50
0009FF60000005FF60
001FFD00000004FF70
007FF700000004FF80
00CFF200000004FF80
03FFC000000005FF70
07FF8000000006FF60
0BFF4000000007FF50
0EFF1000000009FF40
2FFD000000000BFF20
4FFB000000000EFE00
6FF9000000003FFB00
8FF7000000006FF600
AFF600000000BFF200
AFF500000001FFC000
AFF500000006FF7000
AFF50000000CFE1000
8FF60000004FF80000
6FF7000000CFE10000
2FFA000007FF700000
0CFE00004FFB000000
04FF7005EFC1000000
008FFCDFFA10000000
0006DFFC5000000000
000001000000000000
ENDCHAR
STARTCHAR Oacute
ENCODING 211
SWIDTH 567 0
DWIDTH 18 0
BBX 17 37 0 -7
BITMAP
00000000000004B100
0000000000008FF500
00000000003CFFB100
0000000002FFC40000
000000000053000000
000000000000000000
0000000029D9430000
00000005EFFFFF8000
0000005FFFF99FF300
000003FFDC500EFA00
00001DFF32000AFE00
00008FF7000008FF20
0001EFD0000006FF50
0009FF60000005FF60
001FFD00000004FF70
007FF700000004FF80
00CFF200000004FF80
03FFC000000005FF70
07FF8000000006FF60
0BFF4000000007FF50
0EFF1000000009FF40
2FFD000000000BFF20
4FFB000000000EFE00
6FF9000000003FFB00
8FF7000000006FF600
AFF600000000BFF200
AFF500000001FFC000
AFF500000006FF7000
AFF50000000CFE1000
8FF60000004FF80000
6FF7000000CFE10000
2FFA000007FF700000
0CFE00004FFB000000
04FF7005EFC1000000
008FFCDFFA10000000
0006DFFC5000000000
000001000000000000
ENDCHAR
STARTCHAR Ocircumflex
ENCODING 212
SWIDTH 567 0
DWIDTH 18 0
BBX 17 36 0 -7
BITMAP
000000000004DE9000
00000000007FDFF300
000000001AFA1AFB00
000000007A60019B50
000000000000000000
0000000029D9430000
00000005EFFFFF8000
0000005FFFF99FF300
000003FFDC500EFA00
00001DFF32000AFE00
00008FF7000008FF20
0001EFD0000006FF50
0009FF60000005FF60
001FFD00000004FF70
007FF700000004FF80
00CFF200000004FF80
03FFC000000005FF70
07FF8000000006FF60
0BFF4000000007FF50
0EFF1000000009FF40
2FFD000000000BFF20
4FFB000000000EFE00
6FF9000000003FFB00
8FF7000000006FF600
AFF600000000BFF200
AFF500000001FFC000
AFF500000006FF7000
AFF50000000CFE1000
8FF60000004FF80000
6FF7000000CFE10000
2FFA000007FF700000
0CFE00004FFB000000
04FF7005EFC1000000
008FFCDFFA10000000
0006DFFC5000000000
000001000000000000
ENDCHAR
STARTCHAR Otilde
ENCODING 213
SWIDTH 567 0
DWIDTH 18 0
BBX 17 36 0 -7
BITMAP
000000000010000020
00000002BFFEA548E0
0000000BFEBDFFFFA0
000000047000367500
000000000000000000
0000000029D9430000
00000005EFFFFF8000
0000005FFFF99FF300
000003FFDC500EFA00
00001DFF32000AFE00
00008FF7000008FF20
0001EFD0000006FF50
0009FF60000005FF60
001FFD00000004FF70
007FF700000004FF80
00CFF200000004FF80
03FFC000000005FF70
07FF8000000006FF60
0BFF4000000007FF50
0EFF1000000009FF40
2FFD000000000BFF20
4FFB000000000EFE00
6FF9000000003FFB00
8FF7000000006FF600
AFF600000000BFF200
AFF500000001FFC000
AFF500000006FF7000
AFF50000000CFE1000
8FF60000004FF80000
6FF7000000CFE10000
2FFA000007FF700000
0CFE00004FFB000000
04FF7005EFC1000000
008FFCDFFA10000000
0006DFFC5000000000
000001000000000000
ENDCHAR
STARTCHAR Odieresis
ENCODING 214
SWIDTH 567 0
DWIDTH 18 0
BBX 17 35 0 -7
BITMAP
000000002CFA02BE80
000000009FF80AFF80
000000003850037400
000000000000000000
0000000029D9430000
00000005EFFFFF8000
0000005FFFF99FF300
000003FFDC500EFA00
00001DFF32000AFE00
00008FF7000008FF20
0001EFD0000006FF50
0009FF60000005FF60
001FFD00000004FF70
007FF700000004FF80
00CFF200000004FF80
03FFC000000005FF70
07FF8000000006FF60
0BFF4000000007FF50
0EFF1000000009FF40
2FFD000000000BFF20
4FFB000000000EFE00
6FF9000000003FFB00
8FF7000000006FF600
AFF600000000BFF200
AFF500000001FFC000
AFF500000006FF7000
AFF50000000CFE1000
8FF60000004FF80000
6FF7000000CFE10000
2FFA000007FF700000
0CFE00004FFB000000
04FF7005EFC1000000
008FFCDFFA10000000
0006DFFC5000000000
000001000000000000
ENDCHAR
STARTCHAR multiply
ENCODING 215
SWIDTH 281 0
DWIDTH 9 0
BBX 12 12 -1 5
BITMAP
002730000520
00AFD0008FE2
001FF407FF50
000AF85FF500
0005FDFF6000
0001FFF70000
0001EF800000
001CFF800000
00AFBFD00000
09FA0DF40000
7FB007FD0000
7A10009B0000
ENDCHAR
STARTCHAR Oslash
ENCODING 216
SWIDTH 597 0
DWIDTH 19 0
BBX 20 32 -1 -7
BITMAP
00000000000000000024
00000000007CC4413DFB
000000001CFFFFFDDFF3
00000001DFFFC7EFFF90
0000000BFF9B008FFE10
0000007FF801008FF700
000002FFD00002FFF800
00000AFF40000AFFFB00
00003FFB00003FFFFC00
0000AFF40000CFEEFD00
0001EFD00005FF7DFE00
0006FF70000DFD0DFE00
000BFF30006FF40EFE00
001FFD0001EFB00FFD00
004FFA0008FF201FFC00
008FF6002FF9003FFA00
00BFF300AFE1005FF800
00DFF103FF70008FF500
00FFE00BFD0000CFF200
02FFD05FF60001FFD000
03FFC0DFD00005FF9000
04FFB6FF50000AFF4000
04FFCEFD00001EFD0000
03FFFFF500007FF60000
02FFFFC00000DFD00000
00EFFF500007FF700000
00BFFD00002EFC000000
00CFF70001CFE2000000
05FFFD102BFF40000000
0DFFFFECFFE400000000
6FFE3BFFD81000000000
7A710001000000000000
ENDCHAR
STARTCHAR Ugrave
ENCODING 217
SWIDTH 574 0
DWIDTH 18 0
BBX 20 35 0 -6
BITMAP
00000000009B40000000
0000000002FFF7000000
00000000003BFFA00000
0000000000004CF50000
00000000000000400000
00000000000000000120
0000028CE1000001BFF7
00000DFFB0000006FFF2
00004FFF5000000AFFC0
00009FFE0000000EFF70
0000DFF90000003FFF20
0002FFF40000007FFC00
0007FFD0000000BFF800
000BFF80000000EFF300
000EFF40000003FFE000
004FFE00000007FF9000
008FFA0000000BFF5000
00BFF50000000EFF1000
00EFF10000003FFB0000
03FFC00000006FF70000
06FF700000009FF30000
09FF30000000DFE00000
0CFF00000001FFB00000
0FFC00000004FF800000
3FF900000009FF500000
5FF70000000DFF300000
7FF50000004FFF100000
9FF3000000BFFE000000
AFF3000002FFFD000000
AFF400000AFFFC000000
9FF600005FEEFB000000
7FFC0003EF5CFC000000
2FFFA68EF80BFE000000
07FFFFFF7007FF500000
004ACC82000077100000
ENDCHAR
STARTCHAR Uacute
ENCODING 218
SWIDTH 574 0
DWIDTH 18 0
BBX 20 35 0 -6
BITMAP
00000000000000097000
00000000000003CFE000
0000000000007FFF6000
000000000008FE920000
00000000000251000000
00000000000000000120
0000028CE1000001BFF7
00000DFFB0000006FFF2
00004FFF5000000AFFC0
00009FFE0000000EFF70
0000DFF90000003FFF20
0002FFF40000007FFC00
0007FFD0000000BFF800
000BFF80000000EFF300
000EFF40000003FFE000
004FFE00000007FF9000
008FFA0000000BFF5000
00BFF50000000EFF1000
00EFF10000003FFB0000
03FFC00000006FF70000
06FF700000009FF30000
09FF30000000DFE00000
0CFF00000001FFB00000
0FFC00000004FF800000
3FF900000009FF500000
5FF70000000DFF300000
7FF50000004FFF100000
9FF3000000BFFE000000
AFF3000002FFFD000000
AFF400000AFFFC000000
9FF600005FEEFB000000
7FFC0003EF5CFC000000
2FFFA68EF80BFE000000
07FFFFFF7007FF500000
004ACC82000077100000
ENDCHAR
STARTCHAR Ucircumflex
ENCODING 219
SWIDTH 574 0
DWIDTH 18 0
BBX 20 35 0 -6
BITMAP
0000000000005DE80000
000000000008FDFF2000
0000000001BFA1AFB000
0000000007A60019B500
00000000000000000000
00000000000000000120
0000028CE1000001BFF7
00000DFFB0000006FFF2
00004FFF5000000AFFC0
00009FFE0000000EFF70
0000DFF90000003FFF20
0002FFF40000007FFC00
0007FFD0000000BFF800
000BFF80000000EFF300
000EFF40000003FFE000
004FFE00000007FF9000
008FFA0000000BFF5000
00BFF50000000EFF1000
00EFF10000003FFB0000
03FFC00000006FF70000
06FF700000009FF30000
09FF30000000DFE00000
0CFF00000001FFB00000
0FFC00000004FF800000
3FF900000009FF500000
5FF70000000DFF300000
7FF50000004FFF100000
9FF3000000BFFE000000
AFF3000002FFFD000000
AFF400000AFFFC000000
9FF600005FEEFB000000
7FFC0003EF5CFC000000
2FFFA68EF80BFE000000
07FFFFFF7007FF500000
004ACC82000077100000
ENDCHAR
STARTCHAR Udieresis
ENCODING 220
SWIDTH 574 0
DWIDTH 18 0
BBX 20 34 0 -6
BITMAP
0000000005EF605DE400
000000000EFF40FFF400
00000000067300572000
00000000000000000000
00000000000000000120
0000028CE1000001BFF7
00000DFFB0000006FFF2
00004FFF5000000AFFC0
00009FFE0000000EFF70
0000DFF90000003FFF20
0002FFF40000007FFC00
0007FFD0000000BFF800
000BFF80000000EFF300
000EFF40000003FFE000
004FFE00000007FF9000
008FFA0000000BFF5000
00BFF50000000EFF1000
00EFF10000003FFB0000
03FFC00000006FF70000
06FF700000009FF30000
09FF30000000DFE00000
0CFF00000001FFB00000
0FFC00000004FF800000
3FF900000009FF500000
5FF70000000DFF300000
7FF50000004FFF100000
9FF3000000BFFE000000
AFF3000002FFFD000000
AFF400000AFFFC000000
9FF600005FEEFB000000
7FFC0003EF5CFC000000
2FFFA68EF80BFE000000
07FFFFFF7007FF500000
004ACC82000077100000
ENDCHAR
STARTCHAR Yacute
ENCODING 221
SWIDTH 532 0
DWIDTH 17 0
BBX 19 35 0 -6
BITMAP
00000000000002B30000
0000000000005EF90000
00000000001AFFD30000
0000000000CFD7100000
00000000003400000000
00000134000000016610
00005EFE1000002EFF20
0000BFFA0000007FFC00
0001FFF4000000AFF800
0005FFD0000000EFF300
0009FF80000002FFE000
000DFF30000005FF9000
002FFD00000008FF5000
006FF90000000CFF1000
00AFF40000001FFC0000
00DFF10000004FF80000
01FFB00000009FF50000
04FF70000000EFF10000
07FF40000005FFC00000
0AFF1000000CFF800000
0CFD0000005FFF400000
0EFC000001DFFF100000
0EFD00000AFAFC000000
0CFF4001AFA7F8000000
08FFFAAEFB0BF5000000
01CFFFFE801FF1000000
00068861006FB0000000
0000000000DF70000000
0000000005FF20000000
000000000DF900000000
06E200009FF200000000
4FFD402AFF7000000000
BFFFFFFFF90000000000
5FFFFFFE700000000000
029BCB71000000000000
ENDCHAR
STARTCHAR Thorn
ENCODING 222
SWIDTH 569 0
DWIDTH 18 0
BBX 20 30 -2 -6
BITMAP
00000000021000000000
00000005DF5000000000
0000000EFF2000000000
0000003FFD0000000000
0000007FF80000000000
000000AFF40000000000
000000EFF8BCDEC82000
000003FFFFDABEFFE400
00007EFFB400006FFE20
000BFFFF30000008FFA0
002FFFFE00000001FFF0
000CBFFA00000000DFF3
00015FF700000000DFF3
00009FF300000000EFF2
0000CFE000000002FFE0
0001FFA000000006FFA0
0004FF700000000CFF40
0008FF300000005FFC00
000CFF00000002EFF300
000FFC0000002DFF5000
004FF9000003DFF60000
007FF600019FFE400000
00BFF325AFFF91000000
00EFFFFFFD8200000000
03FFE764200000000000
06FFB000000000000000
0AFF8000000000000000
0DFF6000000000000000
2FFF4000000000000000
2BA50000000000000000
ENDCHAR
STARTCHAR germandbls
ENCODING 223
SWIDTH 495 0
DWIDTH 16 0
BBX 19 37 -4 -15
BITMAP
00000000000012000000
00000000003BFFE70000
0000000005FFFBEF6000
000000003FFC206FD000
00000000BFE1008FF000
00000003FF6000DFC000
00000009FE1004FF6000
0000000EFA000BFD0000
0000004FF4003FF50000
0000008FE0009FA00000
000000DF9000EF200000
000002FF4000EF200000
000006FE00009FA00000
00000AFA00002FF50000
00000EF5000009FE1000
00004FE1000002FFB000
0A828FA00000008FF600
04CFFF600000001EFD00
0005FF8000088007FF30
0005FFFA008FE103FD00
0009F8AF90AFF808F400
000DF40DF53FFFFF6000
002FE004FE14DFC30000
006FB000CF6000000000
00AF80007FB000000000
00EF40005FD000000000
03FF10005FD000000000
06FD00007FC000000000
0AF90000CF8000000000
0EF50003FF3000000000
2FF2000BFC0000000000
6FE0006FF50000000000
9FB004FFA00000000000
CFB17FFE100000000000
CFFFFFE3000000000000
9FFFFD30000000000000
2DFD7100000000000000
ENDCHAR
STARTCHAR agrave
ENCODING 224
SWIDTH 435 0
DWIDTH 14 0
BBX 18 20 -1 -1
BITMAP
000006C60000000000
00000DFFB100000000
0000029FFD20000000
00000002AF90000000
000000000320000000
000000011000000000
000001AFFA00000000
00003EFDFF30000000
0003EF62FE41000000
001EF8037FF2000000
00AFD0004FE0000000
04FF50007FB0000055
0AFE0000BF800003E3
1FFA0000EF50001D80
4FF70005FF2000BB00
7FF6003EFE0009E100
7FF905EBFD008F3000
4FFFFFD1DF7AF50000
0CFFF9108FFF600000
016510000552000000
ENDCHAR
STARTCHAR aacute
ENCODING 225
SWIDTH 435 0
DWIDTH 14 0
BBX 18 20 -1 -1
BITMAP
0000000005A0000000
000000019FF3000000
0000003DFFA0000000
000003FFB400000000
000000520000000000
000000011000000000
000001AFFA00000000
00003EFDFF30000000
0003EF62FE41000000
001EF8037FF2000000
00AFD0004FE0000000
04FF50007FB0000055
0AFE0000BF800003E3
1FFA0000EF50001D80
4FF70005FF2000BB00
7FF6003EFE0009E100
7FF905EBFD008F3000
4FFFFFD1DF7AF50000
0CFFF9108FFF600000
016510000552000000
ENDCHAR
STARTCHAR acircumflex
ENCODING 226
SWIDTH 435 0
DWIDTH 14 0
BBX 18 20 -1 -1
BITMAP
00000005DE70000000
0000008FDFE2000000
00001BF90BFA000000
00008A6002AC400000
000000000000000000
000000011000000000
000001AFFA00000000
00003EFDFF30000000
0003EF62FE41000000
001EF8037FF2000000
00AFD0004FE0000000
04FF50007FB0000055
0AFE0000BF800003E3
1FFA0000EF50001D80
4FF70005FF2000BB00
7FF6003EFE0009E100
7FF905EBFD008F3000
4FFFFFD1DF7AF50000
0CFFF9108FFF600000
016510000552000000
ENDCHAR
STARTCHAR atilde
ENCODING 227
SWIDTH 435 0
DWIDTH 14 0
BBX 18 20 -1 -1
BITMAP
000000100000200000
00019EFFB647E30000
0008FEBDFFFFD10000
000281002676100000
000000000000000000
000000011000000000
000001AFFA00000000
00003EFDFF30000000
0003EF62FE41000000
001EF8037FF2000000
00AFD0004FE0000000
04FF50007FB0000055
0AFE0000BF800003E3
1FFA0000EF50001D80
4FF70005FF2000BB00
7FF6003EFE0009E100
7FF905EBFD008F3000
4FFFFFD1DF7AF50000
0CFFF9108FFF600000
016510000552000000
ENDCHAR
STARTCHAR adieresis
ENCODING 228
SWIDTH 435 0
DWIDTH 14 0
BBX 18 19 -1 -1
BITMAP
000006EE406DD30000
00000FFE21FFE30000
000007720066200000
000000000000000000
000000011000000000
000001AFFA00000000
00003EFDFF30000000
0003EF62FE41000000
001EF8037FF2000000
00AFD0004FE0000000
04FF50007FB0000055
0AFE0000BF800003E3
1FFA0000EF50001D80
4FF70005FF2000BB00
7FF6003EFE0009E100
7FF905EBFD008F3000
4FFFFFD1DF7AF50000
0CFFF9108FFF600000
016510000552000000
ENDCHAR
STARTCHAR aring
ENCODING 229
SWIDTH 435 0
DWIDTH 14 0
BBX 18 20 -1 -1
BITMAP
000000036300000000
0000007EBF20000000
000000E72F40000000
000000BEDC00000000
000000165000000000
000000011000000000
000001AFFA00000000
00003EFDFF30000000
0003EF62FE41000000
001EF8037FF2000000
00AFD0004FE0000000
04FF50007FB0000055
0AFE0000BF800003E3
1FFA0000EF50001D80
4FF70005FF2000BB00
7FF6003EFE0009E100
7FF905EBFD008F3000
4FFFFFD1DF7AF50000
0CFFF9108FFF600000
016510000552000000
ENDCHAR
STARTCHAR ae
ENCODING 230
SWIDTH 594 0
DWIDTH 19 0
BBX 23 15 -1 -1
BITMAP
000000011000000100000000
000001AFFC003BFFB0000000
00003EFDFF26FECFF4000000
0003EF62FE8FC12FF3000000
001EF8039FFE205FD0000000
00AFD0008FF802DF30000000
04FF5000BFF32DF600000430
0AFE0000EFE5EE4000003E30
1FFA0001FFFFB2000003E800
4FF70004FFE60000003EA000
7FF6002DFFB0000004EB1000
7FF904EDDFE100007FB10000
4FFFFFE35FFC536CF8000000
0CFFFB2009FFFFFC40000000
01663000004AB94000000000
ENDCHAR
STARTCHAR ccedilla
ENCODING 231
SWIDTH 363 0
DWIDTH 12 0
BBX 16 22 -1 -8
BITMAP
0000000210000000
00003AFFE5000000
0004EFD7EE000000
003EFB14FF000000
00CFD11FFC000000
05FF301FF4000000
0BFB0004200000B1
1FF60000000009B0
4FF3000000007E20
4FF200000006F400
3FF30000006F6000
0EF9000009F70000
08FF9325DF500000
00CFFFFFC3000000
0008FEA500000000
0009F50000000000
000EFA8200000000
00189DFE10000000
000003FF10000000
00002BF700000000
003BFB4000000000
0024100000000000
ENDCHAR
STARTCHAR egrave
ENCODING 232
SWIDTH 372 0
DWIDTH 12 0
BBX 16 20 -1 -1
BITMAP
000009B300000000
00003FFF70000000
000004BFF9000000
00000004CF400000
0000000004000000
0000000000000000
000004BFF9000000
00008FDDFF200000
0008FB13FF200000
004FE107FC000000
00DF702EE2000000
06FF13EF50000042
0CFC6FD3000004E2
1FFFFA1000003E50
2FFE50000004E800
2FF90000004EA000
0EFD100008FA0000
07FFC537DF700000
00AFFFFFB3000000
0005AB8300000000
ENDCHAR
STARTCHAR eacute
ENCODING 233
SWIDTH 372 0
DWIDTH 12 0
BBX 16 20 -1 -1
BITMAP
0000000009700000
00000003CFE00000
0000007FFF600000
000008FE92000000
0000025100000000
0000000000000000
000004BFF9000000
00008FDDFF200000
0008FB13FF200000
004FE107FC000000
00DF702EE2000000
06FF13EF50000042
0CFC6FD3000004E2
1FFFFA1000003E50
2FFE50000004E800
2FF90000004EA000
0EFD100008FA0000
07FFC537DF700000
00AFFFFFB3000000
0005AB8300000000
ENDCHAR
STARTCHAR ecircumflex
ENCODING 234
SWIDTH 372 0
DWIDTH 12 0
BBX 16 20 -1 -1
BITMAP
00000009EE300000
000002CFDFB00000
00004EF62EF50000
0002993004BB1000
0000000000000000
0000000000000000
000004BFF9000000
00008FDDFF200000
0008FB13FF200000
004FE107FC000000
00DF702EE2000000
06FF13EF50000042
0CFC6FD3000004E2
1FFFFA1000003E50
2FFE50000004E800
2FF90000004EA000
0EFD100008FA0000
07FFC537DF700000
00AFFFFFB3000000
0005AB8300000000
ENDCHAR
STARTCHAR edieresis
ENCODING 235
SWIDTH 372 0
DWIDTH 12 0
BBX 16 19 -1 -1
BITMAP
00005EE506DE3000
0000FFF31FFF3000
0000772006720000
0000000000000000
0000000000000000
000004BFF9000000
00008FDDFF200000
0008FB13FF200000
004FE107FC000000
00DF702EE2000000
06FF13EF50000042
0CFC6FD3000004E2
1FFFFA1000003E50
2FFE50000004E800
2FF90000004EA000
0EFD100008FA0000
07FFC537DF700000
00AFFFFFB3000000
0005AB8300000000
ENDCHAR
STARTCHAR igrave
ENCODING 236
SWIDTH 274 0
DWIDTH 9 0
BBX 12 20 0 -1
BITMAP
1BA200000000
6FFE40000000
05DFF6000000
0006DF100000
000004000000
000000000000
000252000000
008FF2000000
01FFD0000000
06FF80000000
0AFF20000000
0DFC000000A2
1FF8000009D0
3FF400007F40
4FE00006F700
5FB0006F9000
5FB008FA0000
1FFADFA00000
06FFF7000000
002520000000
ENDCHAR
STARTCHAR iacute
ENCODING 237
SWIDTH 274 0
DWIDTH 9 0
BBX 12 20 0 -1
BITMAP
00000005B000
0000019FF400
00003DFFA100
0002FFC40000
000053000000
000000000000
000252000000
008FF2000000
01FFD0000000
06FF80000000
0AFF20000000
0DFC000000A2
1FF8000009D0
3FF400007F40
4FE00006F700
5FB0006F9000
5FB008FA0000
1FFADFA00000
06FFF7000000
002520000000
ENDCHAR
STARTCHAR icircumflex
ENCODING 238
SWIDTH 274 0
DWIDTH 9 0
BBX 12 20 0 -1
BITMAP
0002BED10000
003EFDF80000
06FD35FE2000
4A91007B9000
000000000000
000000000000
000252000000
008FF2000000
01FFD0000000
06FF80000000
0AFF20000000
0DFC000000A2
1FF8000009D0
3FF400007F40
4FE00006F700
5FB0006F9000
5FB008FA0000
1FFADFA00000
06FFF7000000
002520000000
ENDCHAR
STARTCHAR idieresis
ENCODING 239
SWIDTH 274 0
DWIDTH 9 0
BBX 12 19 0 -1
BITMAP
09EE209EC100
3FFD15FFD000
186101761000
000000000000
000000000000
000252000000
008FF2000000
01FFD0000000
06FF80000000
0AFF20000000
0DFC000000A2
1FF8000009D0
3FF400007F40
4FE00006F700
5FB0006F9000
5FB008FA0000
1FFADFA00000
06FFF7000000
002520000000
ENDCHAR
STARTCHAR eth
ENCODING 240
SWIDTH 393 0
DWIDTH 13 0
BBX 17 23 -1 -1
BITMAP
000000001000000000
00000002D100000000
00000001EA00000000
000000009F20021000
000000007FCDFF6000
000005BEFFFFDB2000
00002FFFCFE2000000
00003C610DF1000000
000000000DF2000000
000028A71CF3000000
0006FFFFEEF3000000
002EFB24FFF2000030
00BFE000BFF1001A90
04FFE0009FE004DA10
0AFFF2009FC3AF8000
0EFCFC31BFEFD40000
1FF2CFFFFFE8100000
2FF018BDFF20000000
1FF0000AFB00000000
0FF3004FF400000000
0BFB36EF9000000000
03EFFFF80000000000
002797300000000000
ENDCHAR
STARTCHAR ntilde
ENCODING 241
SWIDTH 461 0
DWIDTH 15 0
BBX 19 19 -1 -1
BITMAP
00000000000011000000
00006DFFD845C7000000
0003FFCCFFFFF3000000
00008300157720000000
00000000000000000000
00000000165000000000
0008ED07EFF900000000
001FFA9FEFFE00000000
004FFDF60BFF20000000
007FFF500AFF10000000
00BFF8000CFC00000910
00EFC0001FF900007C00
02FF50004FF50004F400
06FF10008FF1002E8000
0AFD0000DFB001DC0000
0EF90001FF801CD20000
3FF60002FFA6ED200000
7FD10000DFFFC2000000
561000002AB700000000
ENDCHAR
STARTCHAR ograve
ENCODING 242
SWIDTH 393 0
DWIDTH 13 0
BBX 17 20 -1 -1
BITMAP
000009B30000000000
00003FFF7000000000
000004BFF900000000
00000004CF40000000
000000000400000000
000000000000000000
000028A71000000000
0006FFFFE300000000
002EFB24FD10000030
00BFE000BF60001A90
04FFE0009F9004DA10
0AFFF2009F92AF8000
0EFCFC31BFEFD40000
1FF2CFFFFFE7100000
2FF018BDFF10000000
1FF0000AFA00000000
0FF3004FF400000000
0BFB36EF9000000000
03EFFFF80000000000
002797300000000000
ENDCHAR
STARTCHAR oacute
ENCODING 243
SWIDTH 393 0
DWIDTH 13 0
BBX 17 20 -1 -1
BITMAP
000000000970000000
00000003CFE0000000
0000007FFF60000000
000008FE9200000000
000002510000000000
000000000000000000
000028A71000000000
0006FFFFE300000000
002EFB24FD10000030
00BFE000BF60001A90
04FFE0009F9004DA10
0AFFF2009F92AF8000
0EFCFC31BFEFD40000
1FF2CFFFFFE7100000
2FF018BDFF10000000
1FF0000AFA00000000
0FF3004FF400000000
0BFB36EF9000000000
03EFFFF80000000000
002797300000000000
ENDCHAR
STARTCHAR ocircumflex
ENCODING 244
SWIDTH 393 0
DWIDTH 13 0
BBX 17 20 -1 -1
BITMAP
0000008EE300000000
00001BFDFC00000000
0003DF61EF60000000
002993004BB1000000
000000000000000000
000000000000000000
000028A71000000000
0006FFFFE300000000
002EFB24FD10000030
00BFE000BF60001A90
04FFE0009F9004DA10
0AFFF2009F92AF8000
0EFCFC31BFEFD40000
1FF2CFFFFFE7100000
2FF018BDFF10000000
1FF0000AFA00000000
0FF3004FF400000000
0BFB36EF9000000000
03EFFFF80000000000
002797300000000000
ENDCHAR
STARTCHAR otilde
ENCODING 245
SWIDTH 393 0
DWIDTH 13 0
BBX 17 19 -1 -1
BITMAP
000001000002000000
0009EFFB646E400000
007FFCCFFFFD100000
001810025761000000
000000000000000000
000028A71000000000
0006FFFFE300000000
002EFB24FD10000030
00BFE000BF60001A90
04FFE0009F9004DA10
0AFFF2009F92AF8000
0EFCFC31BFEFD40000
1FF2CFFFFFE7100000
2FF018BDFF10000000
1FF0000AFA00000000
0FF3004FF400000000
0BFB36EF9000000000
03EFFFF80000000000
002797300000000000
ENDCHAR
STARTCHAR odieresis
ENCODING 246
SWIDTH 393 0
DWIDTH 13 0
BBX 17 18 -1 -1
BITMAP
0000AFD01AEB000000
0005FFC06FFC000000
000286001751000000
000000000000000000
000028A71000000000
0006FFFFE300000000
002EFB24FD10000030
00BFE000BF60001A90
04FFE0009F9004DA10
0AFFF2009F92AF8000
0EFCFC31BFEFD40000
1FF2CFFFFFE7100000
2FF018BDFF10000000
1FF0000AFA00000000
0FF3004FF400000000
0BFB36EF9000000000
03EFFFF80000000000
002797300000000000
ENDCHAR
STARTCHAR divide
ENCODING 247
SWIDTH 350 0
DWIDTH 11 0
BBX 12 11 -1 6
BITMAP
000000265000
000001EFF200
000001CD7000
000000000000
0279ABBBBA97
0DFFFFFFFFFE
2FCA98776663
010000000000
00003AB20000
0000DFF40000
00008A500000
ENDCHAR
STARTCHAR oslash
ENCODING 248
SWIDTH 406 0
DWIDTH 13 0
BBX 19 17 -2 -3
BITMAP
000000000007C9000000
00000169939FD1000000
00002DFFFFFF30000000
0000BFE51CF800000200
0006FF5006FB00006E10
000DFF4003FE001AE300
004FFF7003FF17EC2000
008FDFE516FFEF700000
00BF87FFFFFFA2000000
00BF605BCFF700000000
00BF60005FF100000000
009F9001DFA000000000
006FE54CFD1000000000
01DFFFFFC20000000000
0AFF7985000000000000
5FF70000000000000000
24100000000000000000
ENDCHAR
STARTCHAR ugrave
ENCODING 249
SWIDTH 468 0
DWIDTH 15 0
BBX 18 20 0 -1
BITMAP
00006C600000000000
0000DFFB1000000000
000029FFD200000000
0000002AF900000000
000000003200000000
000000000000000000
000000000010000000
007EB0000CF6000000
05FF60006FF6000000
0CFE1000CFF4000000
2FFA0002FFF1000000
5FF50005FFC0000068
9FF10008FF800003E2
CFB0000AFF20001D70
DF80000AF90000BC00
FF80000CF8000AE200
EFB0009FFB01AF3000
9FFB8CF9FFADE40000
1CFFFF80AFFD300000
005762000540000000
ENDCHAR
STARTCHAR uacute
ENCODING 250
SWIDTH 468 0
DWIDTH 15 0
BBX 18 20 0 -1
BITMAP
000000002B30000000
00000006EF80000000
000001AFFD20000000
00000DFD6000000000
000004400000000000
000000000000000000
000000000010000000
007EB0000CF6000000
05FF60006FF6000000
0CFE1000CFF4000000
2FFA0002FFF1000000
5FF50005FFC0000068
9FF10008FF800003E2
CFB0000AFF20001D70
DF80000AF90000BC00
FF80000CF8000AE200
EFB0009FFB01AF3000
9FFB8CF9FFADE40000
1CFFFF80AFFD300000
005762000540000000
ENDCHAR
STARTCHAR ucircumflex
ENCODING 251
SWIDTH 468 0
DWIDTH 15 0
BBX 18 19 0 -1
BITMAP
0000002CEB00000000
000005EEEF60000000
00008FC27FE1000000
0005A81008B8000000
000000000000000000
000000000010000000
007EB0000CF6000000
05FF60006FF6000000
0CFE1000CFF4000000
2FFA0002FFF1000000
5FF50005FFC0000068
9FF10008FF800003E2
CFB0000AFF20001D70
DF80000AF90000BC00
FF80000CF8000AE200
EFB0009FFB01AF3000
9FFB8CF9FFADE40000
1CFFFF80AFFD300000
005762000540000000
ENDCHAR
STARTCHAR udieresis
ENCODING 252
SWIDTH 468 0
DWIDTH 15 0
BBX 18 18 0 -1
BITMAP
00007EE308ED200000
0002FFE13FFE100000
000087100661000000
000000000000000000
000000000010000000
007EB0000CF6000000
05FF60006FF6000000
0CFE1000CFF4000000
2FFA0002FFF1000000
5FF50005FFC0000068
9FF10008FF800003E2
CFB0000AFF20001D70
DF80000AF90000BC00
FF80000CF8000AE200
EFB0009FFB01AF3000
9FFB8CF9FFADE40000
1CFFFF80AFFD300000
005762000540000000
ENDCHAR
STARTCHAR yacute
ENCODING 253
SWIDTH 406 0
DWIDTH 13 0
BBX 13 33 -1 -14
BITMAP
00000000006A00
000000001AFF30
00000004DFF900
0000004FFB3000
00000005200000
00000000000000
00021000002300
00CFF20007FF70
00BFF20006FF80
00EFE00007FF50
03FF90000AFE10
08FF40001EFA00
0CFD00006FF500
1FF80001DFF100
4FF40008FFB000
6FF2003FFF7000
6FF202DFFF3000
4FFB7EFAFF0000
0CFFFF87FC0000
018CB50AF80000
0000000EF50000
0000003FF10000
0000007FD00000
000000BFA00000
000001FF700000
000004FF400000
000008FF100000
00000CFD000000
00001FFA000000
00005FF7000000
00009FF4000000
00008FF1000000
00000550000000
ENDCHAR
STARTCHAR thorn
ENCODING 254
SWIDTH 451 0
DWIDTH 14 0
BBX 21 36 -4 -14
BITMAP
000000006CE50000000000
00000000CFF70000000000
00000000DFF40000000000
00000000EFF10000000000
00000002FFB00000000000
00000005FF700000000000
00000009FF200000000000
0000000CFD000000000000
0000001FF8000000000000
0000004FF4015500000000
0000008FE05DFFA0000000
000000BFA7FEFFF1000000
000000EFCF703FF4000000
000003FFF6000EF4000000
000007FF80001FF2000150
00000BFC00005FE0000B70
00000EF50000CF90008D10
00003FF10006FF3006F300
00006FD6402EFA006F6000
0000AFFFFBCFE119F80000
0000EFFFFFFFA7DF700000
0003FFAFFFFFFFD4000000
0007FD1ADB357500000000
000AFA0000000000000000
000EF70000000000000000
003FF40000000000000000
007FF10000000000000000
00AFD00000000000000000
00EFA00000000000000000
03FF700000000000000000
07FF400000000000000000
0BFF100000000000000000
0EFD000000000000000000
3FFB000000000000000000
2FF8000000000000000000
0371000000000000000000
ENDCHAR
STARTCHAR ydieresis
ENCODING 255
SWIDTH 406 0
DWIDTH 13 0
BBX 13 32 -1 -14
BITMAP
00005EE506DE30
0000FFF31FFF30
00007720067200
00000000000000
00000000000000
00021000002300
00CFF20007FF70
00BFF20006FF80
00EFE00007FF50
03FF90000AFE10
08FF40001EFA00
0CFD00006FF500
1FF80001DFF100
4FF40008FFB000
6FF2003FFF7000
6FF202DFFF3000
4FFB7EFAFF0000
0CFFFF87FC0000
018CB50AF80000
0000000EF50000
0000003FF10000
0000007FD00000
000000BFA00000
000001FF700000
000004FF400000
000008FF100000
00000CFD000000
00001FFA000000
00005FF7000000
00009FF4000000
00008FF1000000
00000550000000
ENDCHAR
STARTCHAR dotlessi
ENCODING 305
SWIDTH 274 0
DWIDTH 9 0
BBX 12 14 0 -1
BITMAP
000252000000
008FF2000000
01FFD0000000
06FF80000000
0AFF20000000
0DFC000000A2
1FF8000009D0
3FF400007F40
4FE00006F700
5FB0006F9000
5FB008FA0000
1FFADFA00000
06FFF7000000
002520000000
ENDCHAR
STARTCHAR Lslash
ENCODING 321
SWIDTH 492 0
DWIDTH 16 0
BBX 21 31 -4 -7
BITMAP
0000000000000000157600
0000000000000005EFFF90
000000000000004FFFFFE0
00000000000001EFE59FF0
00000000000009FF608FE0
0000000000001FFD00CFA0
0000000000006FF805FF30
000000000000AFF43EFA00
000000000000EFF5EFD100
000000000002FFFFFD2000
000003000006FFFFC20000
00000EDAABEFFFF8000000
000006EFFFFFFF20000000
00000004555FFC00000000
00000000003FF800000000
00000000007FF524200000
0000000014CFFFFF800000
0000005BFFFFFFEC300000
000001FFFFFF9200000000
000004E949FF2000000000
000001000DFB0000000000
000000004FF50000000000
00000000AFD00000000000
00000102FF600000000000
006CFFEDFC000000000000
09FFFFFFFA100000000000
1FFB46FFFFD50000068000
2FFAAFE6AFFFD979DF7000
08FFFA2005DFFFFFFE1000
001210000017DFFFE40000
0000000000000244100000
ENDCHAR
STARTCHAR lslash
ENCODING 322
SWIDTH 218 0
DWIDTH 7 0
BBX 11 23 -2 -1
BITMAP
0000019DD100
000002FFF200
000002FFE000
000004FFB000
000007FF7000
00000AFF3000
00000EFE0000
00002FFA0000
00005FF84550
0025CFFFFFB0
4CFFFFFFDB40
DFFEFFB10000
E935FF600000
0008FF200000
000CFD000000
001FF9000000
004FF5000000
008FF2000000
00BFD0000000
00FF90000000
04FF50000000
06FF10000000
007700000000
ENDCHAR
STARTCHAR OE
ENCODING 338
SWIDTH 918 0
DWIDTH 29 0
BBX 30 31 0 -7
BITMAP
0000000029D9430000000025786200
00000005EFFFFF9000004BFFFFFF70
0000005FFFF99FF4001AFFC5104FF5
000003FFDC500EFA02DFF700000BFB
00001DFF32000AFE1DFF7000000AFD
00008FF7000008FFCFFB0000000DFC
0001EFD0000006FFFFF40000004FF8
0009FF60000005FFFFD0000001DFF3
001FFD00000004FFFFA000001BFFB0
007FF700000004FFFF9000006EFD20
00CFF200000004FFFF900000003100
03FFC000000005FFFFC00000000000
07FF8000000006FFFFF40000000000
0BFF4000000007FFBFFD1000000000
0EFF1000000009FF45EFDBB9000000
2FFD000000000BFF49EFFFFE000000
4FFB000000000EFFFFC539A3000000
6FF9000000003FFFF7000000000000
8FF7000000006FFF70000000000000
AFF600000000BFFC00000000000000
AFF500000001FFF500000000000000
AFF500000006FFF20000000000A300
AFF50000000CFFF10000000004F100
8FF60000004FFFF3000000000CA000
6FF7000000CFFFF6000000009F3000
2FFA000007FFFFFD00000007F90000
0CFE00004FFA5FFFB100019FD10000
04FF7005EFC10AFFFEA89EFD200000
008FFCDFFA10007FFFFFFFA1000000
0006DFFC500000027BCB8300000000
000001000000000000000000000000
ENDCHAR
STARTCHAR oe
ENCODING 339
SWIDTH 583 0
DWIDTH 19 0
BBX 23 15 -1 -1
BITMAP
000000000000000100000000
000028A710003BFFB0000000
0006FFFFE306FECFF4000000
002EFB24FD7FD11FF3000000
00BFE000BFFF305FE0000000
04FFF1009FF902DF60000000
0AFFF8009FF42DF800000340
0EFBFFA4BFF8EF8000002E40
1FF29FFFFFFFD5000002D900
2FF0049DFFD60000002DB000
1FF0000AFFA0000003DC1000
0FF3004FFFE100006EB10000
0BFB47EFBFFC536CF9000000
03EFFFF708FFFFFC40000000
002797200049B94000000000
ENDCHAR
STARTCHAR Scaron
ENCODING 352
SWIDTH 474 0
DWIDTH 15 0
BBX 21 36 -2 -7
BITMAP
000000000003CB2007B910
0000000000009FC1AFB100
0000000000001EFEF80000
00000000000006DC500000
0000000000000000000000
000000000279AA82000000
000000019FFFFEFF700000
0000002DFFC5008FF30000
000001DFF800001FF90000
00000AFF7000000EFC0000
00003FFB0000000FFC0000
00007FF50000003FFA0000
0000AFF40000009FF60000
0000AFF6000001EFE10000
00007FFB000005C9200000
00003FFF40000000000000
00000BFFD1000000000000
000002FFFC100000000000
0000006FFFC00000000000
00000009FFF90000000000
00000000BFFF3000000000
000000001DFFB000000000
0000000005FFF100000000
0000000000DFF400000000
00000000007FF600000000
00000000003FF600000000
00374000001FF500000000
0AFF3000001FF200000000
5FFE0000004FE000000000
7FFD000000AF9000000000
5FFF100003FF3000000000
1FFF70001CFA0000000000
09FFF624CFD10000000000
01DFFFFFFD200000000000
0019EFFD71000000000000
0000010000000000000000
ENDCHAR
STARTCHAR scaron
ENCODING 353
SWIDTH 351 0
DWIDTH 11 0
BBX 12 21 0 -1
BITMAP
001BC5004AA3
0004FF36FE40
0000AFEFC100
00002DD80000
000000000000
000001100000
00007EE30000
0008FFF40000
003FFF900000
004FFF400000
003FFF700000
00CB8FC00000
08E23FF40000
3F400CFB0000
870006FF4000
000001FFA000
02B300BFC000
1DF9008F8000
1FFF22DC0000
08FFFFD20000
008FE9100000
ENDCHAR
STARTCHAR Ydieresis
ENCODING 376
SWIDTH 532 0
DWIDTH 17 0
BBX 19 34 0 -6
BITMAP
000000002CFA02BE8000
000000009FF80AFF8000
00000000385003740000
00000000000000000000
00000134000000016610
00005EFE1000002EFF20
0000BFFA0000007FFC00
0001FFF4000000AFF800
0005FFD0000000EFF300
0009FF80000002FFE000
000DFF30000005FF9000
002FFD00000008FF5000
006FF90000000CFF1000
00AFF40000001FFC0000
00DFF10000004FF80000
01FFB00000009FF50000
04FF70000000EFF10000
07FF40000005FFC00000
0AFF1000000CFF800000
0CFD0000005FFF400000
0EFC000001DFFF100000
0EFD00000AFAFC000000
0CFF4001AFA7F8000000
08FFFAAEFB0BF5000000
01CFFFFE801FF1000000
00068861006FB0000000
0000000000DF70000000
0000000005FF20000000
000000000DF900000000
06E200009FF200000000
4FFD402AFF7000000000
BFFFFFFFF90000000000
5FFFFFFE700000000000
029BCB71000000000000
ENDCHAR
STARTCHAR Zcaron
ENCODING 381
SWIDTH 455 0
DWIDTH 15 0
BBX 20 35 -3 -6
BITMAP
000000000007C91019B6
000000000000CF82CF80
0000000000004FFEE500
00000000000009DB2000
00000000000000000000
00000000023444332000
0000008DFFFFFFFFFF80
000002FFFFFFFFFFFFC0
000006FFDA864334FFC0
0000047200000005FFA0
000000000000000BFF50
000000000000005FFD00
00000000000001DFF500
0000000000000AFFB000
0000000000006FFE2000
000000000003EFF50000
00000000001DFF800000
0000000000AFFA000000
0000000007FFC1000000
000000004FFE20000000
00000002EFF400000000
0000001DFF6000000000
000000BFF90000000000
000008FFB00000000000
00004FFD100000000000
0001EFF3000000000000
000AFF60000000000000
004FFA00000000000000
00DFD100000000000000
06FF5000000000000000
0DFC0002343310000000
6FF88CFFFFFFFEA00000
7FFFFFFFFFFFFF900000
4FFFFDCCDFFFFB000000
09630000001461000000
ENDCHAR
STARTCHAR zcaron
ENCODING 382
SWIDTH 349 0
DWIDTH 11 0
BBX 19 33 -5 -14
BITMAP
000000008C80019B6000
000000001DF73DF70000
0000000005FEEE400000
0000000000ADB2000000
00000000000000000000
00000000000000000000
0000002579AAA7000000
000007FFFFFFFF300000
00000DFFC86AFD000000
00000961000BF7000000
00000000004FE1000000
0000000000DF70000000
0000000008FC00000000
000000004FF300001C30
00000003EF700000AB00
0000004EFEBD701AC100
000002FFFDAFD2CC1000
000002FF800EFEB10000
00000056017FF7000000
000000018EFFC0000000
0000006EF8AF80000000
00001AFD30EF40000000
0001CFB105FE00000000
000BFB000CFA00000000
007FD1004FF400000000
02FF3000BFD000000000
09FA0003FF6000000000
0EF5000BFE1000000000
1FF3005FF70000000000
2FF302EFC00000000000
0FFC7EFE200000000000
0AFFFFE4000000000000
019DDA20000000000000
ENDCHAR
STARTCHAR circumflex
ENCODING 710
SWIDTH 567 0
DWIDTH 18 0
BBX 10 4 6 18
BITMAP
00007EE500
001BFDFD00
03DF71EF70
19A4003AB2
ENDCHAR
STARTCHAR caron
ENCODING 711
SWIDTH 567 0
DWIDTH 18 0
BBX 10 4 6 18
BITMAP
2CB3005B91
07FE18FC20
00DFEFA100
004DD60000
ENDCHAR
STARTCHAR breve
ENCODING 728
SWIDTH 567 0
DWIDTH 18 0
BBX 9 5 6 17
BITMAP
0530000340
2FE0002FE0
1FF714CF70
08FFFFF700
005AB92000
ENDCHAR
STARTCHAR dotaccent
ENCODING 729
SWIDTH 567 0
DWIDTH 18 0
BBX 4 3 9 18
BITMAP
2CF9
AFF7
4840
ENDCHAR
STARTCHAR ring
ENCODING 730
SWIDTH 567 0
DWIDTH 18 0
BBX 6 5 8 17
BITMAP
004620
0ADCE1
1F55F1
1EDD90
016400
ENDCHAR
STARTCHAR ogonek
ENCODING 731
SWIDTH 567 0
DWIDTH 18 0
BBX 8 6 7 -4
BITMAP
03500000
3EE10000
BF700004
EFA237D8
AFFFFD50
16974000
ENDCHAR
STARTCHAR tilde
ENCODING 732
SWIDTH 567 0
DWIDTH 18 0
BBX 10 4 6 18
BITMAP
0001000002
3BFFE9549D
DFDBEFFFF8
5600037740
ENDCHAR
STARTCHAR hungarumlaut
ENCODING 733
SWIDTH 567 0
DWIDTH 18 0
BBX 12 5 5 17
BITMAP
00006A0005B0
001AFF319FF4
04DFF93DFFA1
4FFB32FFB400
052000530000
ENDCHAR
STARTCHAR endash
ENCODING 8211
SWIDTH 353 0
DWIDTH 11 0
BBX 12 4 -1 8
BITMAP
000122222210
0AFFFFFFFFFB
4FFFFFFFEEE7
474310000000
ENDCHAR
STARTCHAR emdash
ENCODING 8212
SWIDTH 508 0
DWIDTH 16 0
BBX 17 4 -1 8
BITMAP
001233444444431000
2EFFFFFFFFFFFFFE80
6FFFFFFFFFFFFFFFA0
265432111112235510
ENDCHAR
STARTCHAR quoteleft
ENCODING 8216
SWIDTH 155 0
DWIDTH 5 0
BBX 5 8 1 14
BITMAP
001900
01D800
0AE100
2FC300
7FFF20
9FFF10
6FF700
032000
ENDCHAR
STARTCHAR quoteright
ENCODING 8217
SWIDTH 154 0
DWIDTH 5 0
BBX 4 8 2 14
BITMAP
0692
9FFA
FFFB
AFF8
0AF2
1E80
AA00
4000
ENDCHAR
STARTCHAR quotesinglbase
ENCODING 8218
SWIDTH 188 0
DWIDTH 6 0
BBX 5 8 -2 -4
BITMAP
001200
06FF60
1FFF90
1FFF80
03CF30
00EA00
07D100
0A1000
ENDCHAR
STARTCHAR quotedblleft
ENCODING 8220
SWIDTH 289 0
DWIDTH 9 0
BBX 9 8 1 14
BITMAP
0019000830
01D800AC00
0AE106F400
2FC30DF500
7FFF5FFF60
9FFF6FFF50
6FF72FFB00
0320023000
ENDCHAR
STARTCHAR quotedblright
ENCODING 8221
SWIDTH 288 0
DWIDTH 9 0
BBX 8 8 2 14
BITMAP
19B407B6
BFFB7FFF
FFFBBFFF
8EF75DFB
0BF106F5
2F700CB0
B8007B10
20002000
ENDCHAR
STARTCHAR quotedblbase
ENCODING 8222
SWIDTH 323 0
DWIDTH 10 0
BBX 9 8 -2 -4
BITMAP
0012001300
06FF63EFB0
1FFF9BFFE0
1FFF8CFFC0
03CF329F70
00EA00AE10
07D103F400
0A10084000
ENDCHAR
STARTCHAR bullet
ENCODING 8226
SWIDTH 180 0
DWIDTH 6 0
BBX 6 8 -1 5
BITMAP
002870
02EFF9
0BFFFE
2FFFFE
4FFFFB
4FFFF5
1EFFA0
037500
ENDCHAR
STARTCHAR ellipsis
ENCODING 8230
SWIDTH 614 0
DWIDTH 20 0
BBX 18 4 -1 -1
BITMAP
015500004620002540
5EFF401CFFA008FFF1
EFFD107FFF501FFFB0
6B81003AA30008B700
ENDCHAR
STARTCHAR perthousand
ENCODING 8240
SWIDTH 851 0
DWIDTH 27 0
BBX 26 25 0 -1
BITMAP
00000120000000002650000000
0001AFFD20000006FE20000000
001CFC8FD000003FF500000000
009FB00AF50000DF9000000000
01FF2007F80008FC0000000000
06FB0008F7004FE20000000000
0AF6000BF501DF600000000000
0BF4001FF109FA000000000000
0AF4008FB05FD1000000000000
07F804FF31EF40000000000000
03FFEFF60AF800000000000000
005CEB406FD000000000000000
00000002EF3000000000000000
0000000BF70069710000069710
0000007FC01CFFFD2001CFFFD1
000002EF30BFB16FA00BFB17F9
00000CF805FD101FE06FD101FD
00007FD10BF6000FF0CF6000FE
0003FF401FF1002FE1FF1002FD
000CFA003FD0006FB4FD0006FA
008FE1003FC000BF64FB000CF6
03FF60002FD004FE13FD005FE1
1DFC00000DF87EF600EF87EF50
9FF4000005FFFF70006FFFF600
76200000003762000003761000
ENDCHAR
STARTCHAR guilsinglleft
ENCODING 8249
SWIDTH 202 0
DWIDTH 6 0
BBX 8 14 -2 -1
BITMAP
00000026
000005FA
00004FC1
0003EE20
002EF500
01DF8000
1CFB0000
1EF80000
07FE1000
00DF6000
004FC000
000AF400
0002EA00
00004500
ENDCHAR
STARTCHAR guilsinglright
ENCODING 8250
SWIDTH 202 0
DWIDTH 6 0
BBX 8 14 -3 -1
BITMAP
00053000
000CE100
0005F800
0000EF20
00008FB0
00002FF5
00000AFD
00000CFC
00009FD1
0006FD20
003EE300
01DE3000
0AE40000
16200000
ENDCHAR
STARTCHAR fraction
ENCODING 8260
SWIDTH 600 0
DWIDTH 19 0
BBX 20 25 0 -1
BITMAP
00000000000000000264
00000000000000008FD1
0000000000000005FF30
000000000000001EF700
00000000000000AFB000
00000000000006FE1000
0000000000002EF40000
000000000000BF800000
000000000007FC000000
00000000002FE2000000
0000000000CF60000000
0000000008FB00000000
000000003FE100000000
00000001DF5000000000
00000008FA0000000000
0000004FE10000000000
000001DF600000000000
000009FB000000000000
00004FF2000000000000
0001EF80000000000000
000AFD00000000000000
005FF400000000000000
02EFB000000000000000
0BFE2000000000000000
17510000000000000000
ENDCHAR
STARTCHAR Euro
ENCODING 8364
SWIDTH 334 0
DWIDTH 11 0
BBX 15 19 -2 2
BITMAP
0000000029DE8000
00000005EF99FA00
0000005FF400BF20
000002EF70008B00
00000CFC00000000
00004FF400000000
0000BFC000000000
0079FFC998620000
06FFFFEEEFF30000
024DFA0000000000
07AFFECCCB200000
4FFFFCCBB9000000
235FE00000000000
004FC00000000000
002FB00000100000
000DD00001D60000
0007F4002DC10000
0000BD78EC100000
000007CB60000000
ENDCHAR
STARTCHAR minus
ENCODING 8722
SWIDTH 353 0
DWIDTH 11 0
BBX 12 4 -1 8
BITMAP
000122222210
0AFFFFFFFFFB
4FFFFFFFEEE7
474310000000
ENDCHAR
STARTCHAR fi
ENCODING 64257
SWIDTH 549 0
DWIDTH 18 0
BBX 23 38 -3 -15
BITMAP
000000001430000000000000
00000008FFC0000000000000
00000009FFC0000006300000
00000007FFC000009FB00000
00000007FF900001FFB00000
00000008FF500000CD300000
0000000AFF10000000000000
0000000DFB00000000000000
0000001FF700000000000000
0000005FF200000000000000
0000008FC000000251000000
000000CF800000AFF1000000
000001FF300003FFB0000000
000006FD000019FF60000000
00000BFA59CEFFFF10000000
00003FFFFD741FFB000001B0
0005FFE930003FF600000BC0
000EFF8000005FF100009E30
000FFF3000006FC00008F500
0009FF6000007F90008F7000
0009FFF800007F901AF80000
000CFAEF70004FFAEF700000
001FF24FF30008FFE5000000
005FD009FC00002510000000
009F9001EF40000000000000
00DF5000BF90000000000000
01FF20008FB0000000000000
05FE00008FB0000000000000
09FB0000AFA0000000000000
0DF70000EF60000000000000
1FF30005FF20000000000000
5FF0000DFB00000000000000
8FC0008FF300000000000000
CF9006FF8000000000000000
EF928FFC0000000000000000
FFFFFFD20000000000000000
CFFFFC200000000000000000
3DFC60000000000000000000
ENDCHAR
STARTCHAR fl
ENCODING 64258
SWIDTH 516 0
DWIDTH 17 0
BBX 20 38 -3 -15
BITMAP
00000000143000000000
00000008FFC000005BE8
00000009FFC000009FF9
00000007FFC00000AFF7
00000007FF900000CFF3
00000008FF500000EFE0
0000000AFF100003FFB0
0000000DFB000006FF70
0000001FF7000009FF30
0000005FF200000DFE00
0000008FC000002FFA00
000000CF8000005FF600
000001FF3000009FF200
000006FD000013DFE000
00000BFA59CEFEFFA000
00003FFFFD7315FF6000
0005FFE9300008FF2000
000EFF8000000CFD0000
000FFF3000001FF90000
0009FF6000004FF60000
0009FFF800007FF20000
000CFAEF7000BFD00000
001FF24FF300DF900000
005FD009FC0038300000
009F9001EF4000000000
00DF5000BF9000000000
01FF20008FB000000000
05FE00008FB000000000
09FB0000AFA000000000
0DF70000EF6000000000
1FF30005FF2000000000
5FF0000DFB0000000000
8FC0008FF30000000000
CF9006FF800000000000
EF928FFC000000000000
FFFFFFD2000000000000
CFFFFC20000000000000
3DFC6000000000000000
ENDCHAR
STARTCHAR .notdef
ENCODING -1
SWIDTH 280 0
DWIDTH 9 0
BBX 1 1 0 0
BITMAP
00
ENDCHAR
ENDFONT
